<svg xmlns="http://www.w3.org/2000/svg" width="15.272" height="20.199" viewBox="0 0 15.272 20.199">
  <path id="alarm" d="M18.967,16.441V17.6H4.975V16.441s-.3-.641,1.325-2.178,1.409-5.509,1.409-8.2,3.779-2.748,3.779-2.748h.13V2.878c0-.269-.9-1.242-.9-1.242L10.7,1.047h2.548l-.017.611s-.978.973-.978,1.259v.4h.2s3.779.057,3.779,2.748-.213,6.664,1.41,8.2S18.967,16.441,18.967,16.441Zm-5.4,1.774a1.814,1.814,0,0,1-1.592,1.832,1.814,1.814,0,0,1-1.592-1.832c0,.02,3.184-.02,3.184,0Z" transform="translate(-4.335 -0.447)" fill="none" stroke="#1baecb" stroke-width="1.2"/>
</svg>
