<svg xmlns="http://www.w3.org/2000/svg" width="37" height="37" viewBox="0 0 37 37">
  <g id="Group_290" data-name="Group 290" transform="translate(-50 -347)">
    <g id="Ellipse_2" data-name="Ellipse 2" transform="translate(50 347)" fill="#fff" stroke="#0080b1" stroke-width="1">
      <circle cx="18.5" cy="18.5" r="18.5" stroke="none"/>
      <circle cx="18.5" cy="18.5" r="18" fill="none"/>
    </g>
    <g id="Group_28" data-name="Group 28" transform="translate(56 351.997)">
      <g id="Group_16" data-name="Group 16" transform="translate(1.848 0.003)">
        <path id="Path_10" data-name="Path 10" d="M29.105,14.192a.407.407,0,0,1-.389-.285,1.537,1.537,0,0,0-1.468-1.069H10.828a.41.41,0,0,1-.4-.311L9.1,7.157a2.327,2.327,0,0,1,.268-1.779A2.352,2.352,0,0,1,10.824,4.3L28.006.072A2.37,2.37,0,0,1,30.87,1.794l2.238,9h0a2.327,2.327,0,0,1-.268,1.779,2.352,2.352,0,0,1-1.46,1.075l-2.176.536A.534.534,0,0,1,29.105,14.192ZM11.149,12.02h16.1a2.353,2.353,0,0,1,2.1,1.282l1.834-.452a1.539,1.539,0,0,0,1.13-1.861l-2.24-9A1.548,1.548,0,0,0,28.2.867L11.021,5.1A1.539,1.539,0,0,0,9.89,6.959Z" transform="translate(-9.026 -0.003)" fill="#0080b1"/>
      </g>
      <g id="Group_17" data-name="Group 17" transform="translate(0 12.02)">
        <path id="Path_11" data-name="Path 11" d="M20.07,72.682H2.36A2.362,2.362,0,0,1,0,70.322V61.06A2.362,2.362,0,0,1,2.36,58.7H20.07a2.365,2.365,0,0,1,2.362,2.362v9.259A2.366,2.366,0,0,1,20.07,72.682ZM2.36,59.519A1.544,1.544,0,0,0,.819,61.06V70.32A1.544,1.544,0,0,0,2.36,71.861H20.07a1.544,1.544,0,0,0,1.542-1.542V61.06a1.552,1.552,0,0,0-.074-.473h0a1.537,1.537,0,0,0-1.468-1.069H2.36Z" transform="translate(0 -58.7)" fill="#0080b1"/>
      </g>
      <g id="Group_18" data-name="Group 18" transform="translate(2.39 2.813)">
        <path id="Path_12" data-name="Path 12" d="M12.745,22.793a.2.2,0,0,1-.2-.156l-.868-3.488a.217.217,0,0,1,.023-.156.2.2,0,0,1,.127-.092l20.979-5.167a.2.2,0,0,1,.248.149l.868,3.49a.217.217,0,0,1-.023.156.2.2,0,0,1-.127.092L12.794,22.787A.2.2,0,0,1,12.745,22.793Zm-.618-3.544.77,3.093,20.582-5.069-.77-3.093Z" transform="translate(-11.673 -13.728)" fill="#0080b1"/>
      </g>
      <g id="Group_20" data-name="Group 20" transform="translate(9.294 14.769)">
        <g id="Group_19" data-name="Group 19">
          <path id="Path_13" data-name="Path 13" d="M46.313,72.13H45.4v2.336h1.028a.876.876,0,0,0,.678-.217.624.624,0,0,0,.168-.432.539.539,0,0,0-.129-.368.633.633,0,0,0-.348-.2l.084-.039a.564.564,0,0,0,.084-.059.478.478,0,0,0,.178-.407.607.607,0,0,0-.158-.407.571.571,0,0,0-.26-.154,1.371,1.371,0,0,0-.411-.055Zm-.391.946V72.57h.252a.8.8,0,0,1,.33.049.207.207,0,0,1,.1.2.2.2,0,0,1-.106.2.855.855,0,0,1-.323.047h-.25Zm0,.95v-.538h.309a1.024,1.024,0,0,1,.381.051.208.208,0,0,1,.119.213.216.216,0,0,1-.113.217.8.8,0,0,1-.338.055h-.358Z" transform="translate(-45.4 -72.13)" fill="#0080b1"/>
        </g>
      </g>
      <g id="Group_22" data-name="Group 22" transform="translate(11.276 14.769)">
        <g id="Group_21" data-name="Group 21">
          <path id="Path_14" data-name="Path 14" d="M56.6,72.13h-.508L55.08,74.466h.557l.219-.506h.985l.219.506h.557L56.6,72.13ZM56.052,73.5l.295-.678.293.678Z" transform="translate(-55.08 -72.13)" fill="#0080b1"/>
        </g>
      </g>
      <g id="Group_23" data-name="Group 23" transform="translate(14.083 14.769)">
        <path id="Path_15" data-name="Path 15" d="M70.956,72.13h-.524v1.5l-1.151-1.5H68.79v2.336h.524V73l1.118,1.464h.524Z" transform="translate(-68.79 -72.13)" fill="#0080b1"/>
      </g>
      <g id="Group_25" data-name="Group 25" transform="translate(16.826 14.769)">
        <g id="Group_24" data-name="Group 24">
          <path id="Path_16" data-name="Path 16" d="M84.249,72.13Zm0,0H83.6l-.886.96v-.96H82.19v2.336h.524V73.8l.235-.26.688.923h.612l-.487-.68c-.217-.305-.366-.512-.446-.622l.934-1.036Z" transform="translate(-82.19 -72.13)" fill="#0080b1"/>
        </g>
      </g>
      <g id="Group_26" data-name="Group 26" transform="translate(2.762 16.933)">
        <path id="Path_17" data-name="Path 17" d="M17.056,87.028H13.695a.205.205,0,0,1-.2-.2V82.9a.205.205,0,0,1,.2-.2h3.364a.205.205,0,0,1,.2.2v3.918A.208.208,0,0,1,17.056,87.028ZM13.9,86.618h2.954V83.109H13.9Z" transform="translate(-13.49 -82.7)" fill="#0080b1"/>
      </g>
      <g id="Group_27" data-name="Group 27" transform="translate(9.871 22.509)">
        <path id="Path_18" data-name="Path 18" d="M56.5,110.349H48.425a.2.2,0,1,1,0-.409H56.5a.2.2,0,1,1,0,.409Z" transform="translate(-48.22 -109.94)" fill="#0080b1"/>
      </g>
    </g>
  </g>
</svg>
