<svg xmlns="http://www.w3.org/2000/svg" width="37" height="37" viewBox="0 0 37 37">
  <g id="Group_289" data-name="Group 289" transform="translate(-54 -457)">
    <g id="Ellipse_48" data-name="Ellipse 48" transform="translate(54 457)" fill="#fff" stroke="#0080b1" stroke-width="1">
      <circle cx="18.5" cy="18.5" r="18.5" stroke="none"/>
      <circle cx="18.5" cy="18.5" r="18" fill="none"/>
    </g>
    <path id="Path_212" data-name="Path 212" d="M21.519,36.852h-.33V32.346A2.091,2.091,0,0,0,19.1,30.257H10.046L3.937,28.512H3.932l-.005,0-.011,0-.017,0-.015,0-.018,0H3.819l-.019,0-.013,0-.019,0-.012,0-.019.006-.011,0-.019.008-.01,0-.018.01-.009.006-.017.012-.009.007-.016.013-.008.008-.014.014-.008.009-.012.015-.008.011-.01.015-.008.013-.008.015-.007.015-.006.015-.006.016,0,.011v.005l0,.005L3.15,30.257H2.088A2.09,2.09,0,0,0,0,32.339s0,0,0,.007v11.43a.33.33,0,1,0,.659,0V33.866a2.08,2.08,0,0,0,1.429.568H19.1a1.43,1.43,0,0,1,1.428,1.429v2.308H16.874l-.031,0h0l-.025.006h-.006l-.022.008-.008,0-.018.008-.012.006-.013.008-.015.009-.009.007-.017.012-.007.006-.017.015-.009.01-.013.014-.019.026h0L14.87,40.955a.325.325,0,0,0-.031.058c0,.008-.006.015-.008.023l0,.007c0,.008,0,.016-.006.025l0,.006c0,.007,0,.015,0,.022v.01c0,.006,0,.012,0,.018s0,.009,0,.014,0,.009,0,.014,0,.013,0,.019v.009c0,.008,0,.015,0,.023v.006c0,.008,0,.017.006.025l0,.007c0,.008.005.015.008.023a.328.328,0,0,0,.031.058l1.758,2.637h0a.341.341,0,0,0,.023.03L16.66,44l.017.018.011.01.02.016.009.007.031.019.008,0,.026.012.01,0,.026.008.011,0,.027,0,.01,0,.035,0h3.63v2.308A1.43,1.43,0,0,1,19.1,47.843H2.089A1.43,1.43,0,0,1,.66,46.414s0,0,0-.005V45.094a.33.33,0,1,0-.659,0v1.319s0,.007,0,.01A2.09,2.09,0,0,0,2.089,48.5H19.1a2.091,2.091,0,0,0,2.088-2.088h0V44.105h.33a.99.99,0,0,0,.989-.989V37.841A.99.99,0,0,0,21.519,36.852Zm.33,6.264a.33.33,0,0,1-.33.33h-4.44l-1.539-2.308,1.539-2.308h4.454a.985.985,0,0,0,.316-.056v4.343ZM4.084,29.24,9.9,30.9h0l3.9,1.114H3.39ZM19.1,33.774H2.088a1.429,1.429,0,0,1,0-2.858h.9l-.275,1.1H2.088a.33.33,0,0,0,0,.659H18.661a.33.33,0,0,0,0-.659H16.2l-3.848-1.1H19.1a1.43,1.43,0,0,1,1.429,1.429v2A2.08,2.08,0,0,0,19.1,33.774Zm2.088,3.737h.33a.33.33,0,1,1,0,.659h-.33Z" transform="translate(62 436.501)" fill="#0080b1"/>
  </g>
</svg>
