<svg xmlns="http://www.w3.org/2000/svg" width="218" height="158" viewBox="0 0 218 158">
  <g id="Group_281" data-name="Group 281" transform="translate(0.431 -0.232)">
    <g id="background" style="mix-blend-mode: multiply;isolation: isolate">
      <rect id="Rectangle_280" data-name="Rectangle 280" width="218" height="158" transform="translate(-0.431 0.232)" fill="#fff"/>
    </g>
    <g id="object" transform="translate(12.277 4.068)">
      <g id="Group_280" data-name="Group 280">
        <path id="Path_107" data-name="Path 107" d="M228.754,713.229q13.859.12,27.685.069a6.1,6.1,0,0,1,2.93.474c2.531,1.321,1.71,4.084-.681,4.968-4.987,1.845-11.83,1.656-17.117,2.1-6.448.54-12.914.836-19.381,1-12.756.323-25.517.123-38.275.25-14.779.147-29.56.244-44.34.132-14.39-.11-29.685.829-43.9-1.616-3.56-.612-7.08-1.478-10.669-1.918-3.392-.416-6.812-.225-10.2-.672-1.851-.244-2.47-1.932-.863-3.087,1.811-1.3,4.984-.57,7.074-.6,3.583-.047,7.177-.311,10.757-.465,15.878-.687,31.656-2.332,47.528-2.057l49.4.857C202.045,712.9,215.407,713.113,228.754,713.229Z" transform="translate(-70.853 -575.063)" opacity="0.22"/>
        <g id="Group_141" data-name="Group 141" transform="translate(56.753)">
          <g id="Group_118" data-name="Group 118" transform="translate(19.4 50.72)">
            <g id="Group_114" data-name="Group 114" transform="translate(0 47.245)">
              <g id="Group_111" data-name="Group 111" transform="translate(16.652 20.869)">
                <g id="Group_110" data-name="Group 110" transform="translate(0.059)">
                  <path id="Path_108" data-name="Path 108" d="M531.572,621.378l.129,7.827c-.053,2.171.143,4.336.275,6.5.123,2.01-.282,4.083.671,5.946.3.584.936.991,1.42.316.373-.52.2-1.42.294-2.024.693-4.537,1.982-8.962,2.626-13.508C537.66,621.674,535.818,621.8,531.572,621.378Z" transform="translate(-531.572 -621.378)" fill="#eac5b0"/>
                </g>
                <path id="Path_109" data-name="Path 109" d="M531.779,716.014l-.5,1.306,2.476,2.18,2.268.093.734-1.2-3.051-2.653Z" transform="translate(-531.276 -697.078)" fill="#3b455a"/>
              </g>
              <g id="Group_113" data-name="Group 113" transform="translate(4.528 20.482)">
                <g id="Group_112" data-name="Group 112" transform="translate(0.304)">
                  <path id="Path_110" data-name="Path 110" d="M477.851,619.885l-1.428,7.7c-.495,3.443-1.62,6.8-2.114,10.239a8.965,8.965,0,0,1-.387,2.4c-.324.731-.957.76-1.516.264-.749-.664-.4-1.851-.39-2.758.092-6.043-.384-12-.5-18.052a.27.27,0,0,1,.064-.221.26.26,0,0,1,.185-.036C472.354,619.463,477.82,620.051,477.851,619.885Z" transform="translate(-471.517 -619.422)" fill="#eac5b0"/>
                </g>
                <path id="Path_111" data-name="Path 111" d="M470.764,718.737l-.785,1.158,1.92,2.682,2.189.6.985-1-2.373-3.273Z" transform="translate(-469.979 -699.093)" fill="#3b455a"/>
              </g>
              <path id="Path_112" data-name="Path 112" d="M471.864,541.716l-1.068-11.19-.515-7.27-1.731-5.938-9.349-1.451-11.558,1.981-.556,2.246,2.224,20.787,11.148.836-.151-12.937,1.72,8.019-.073,4.918Z" transform="translate(-447.087 -515.867)" fill="#3b455a"/>
            </g>
            <path id="Path_113" data-name="Path 113" d="M462.061,361.523c-.016.378-.026.755-.033,1.132-.135,7.675.288,15.448.336,23.187a85.91,85.91,0,0,1,11.982-1.023c.928-.014,5.15.638,5.738.083.8-.752-.08-.611-.021-1.591.076-1.268-.534-2.307-.3-3.809.27-1.766.809-3.513,1.118-5.279A77.091,77.091,0,0,0,482,363.507c.108-3.187-.008-6.492-1.378-9.371-3.379-7.1-14.275-6.972-17.264.441A20.791,20.791,0,0,0,462.061,361.523Z" transform="translate(-459.052 -334.69)" fill="#fff"/>
            <g id="Group_117" data-name="Group 117" transform="translate(6.55)">
              <g id="Group_116" data-name="Group 116">
                <path id="Path_114" data-name="Path 114" d="M517.96,290.186a5.967,5.967,0,0,1,.732,2.7.855.855,0,0,0,.23.685c.216.158.026.5.191.293a4.6,4.6,0,0,0,.748-1.211,9.858,9.858,0,0,0,0-1.878,2.693,2.693,0,0,0-.519-1.523,3.051,3.051,0,0,0-.768-.585,3.925,3.925,0,0,0-1.276-.573c-.794-.148-1.282.137-.581.691A4.846,4.846,0,0,1,517.96,290.186Z" transform="translate(-509.222 -285.866)" fill="#3b455a"/>
                <g id="Group_115" data-name="Group 115" transform="translate(0.921 2.359)">
                  <path id="Path_115" data-name="Path 115" d="M487.714,301.542c.005.384-.073.783.266,1.081a1.163,1.163,0,0,0,.6.235,3.707,3.707,0,0,0,1.664-.118,1.5,1.5,0,0,0,.607-.32.759.759,0,0,0,.216-.615c.011-.29.07-.584.108-.878.083-.643.12-1.29.139-1.938.952-.163,2.071-.471,2.4-1.468a3.276,3.276,0,0,0,.109-.99q.015-2.072.03-4.144a4,4,0,0,0-.159-1.413,2.874,2.874,0,0,0-1.732-1.533,6.218,6.218,0,0,0-5.638.344,3.077,3.077,0,0,0-1.13,1.136,4.832,4.832,0,0,0-.286,2.571q.085,1.212.171,2.424a3.2,3.2,0,0,0,.927,2.49c.383.26.879.308,1.209.646.577.589.3,1.468.472,2.182A1.391,1.391,0,0,1,487.714,301.542Z" transform="translate(-484.86 -288.93)" fill="#eac5b0"/>
                </g>
                <path id="Path_116" data-name="Path 116" d="M494.149,321.792c-.015-.256-.127-1.007-.512-.535a.771.771,0,0,0-.132.462,1.736,1.736,0,0,1-.051.488.86.86,0,0,1-.861.51.839.839,0,0,1-.4-.1,1.255,1.255,0,0,1-.307-.282l-.674-.773c-.386-.443-1.152-.252-1.672-.184a3.333,3.333,0,0,0-1.689.654c-.049.04-.1.082-.146.123a1.8,1.8,0,0,1-.374.27,1.154,1.154,0,0,1-1.361-.432c-.149-.193-.288-.442-.519-.474a.474.474,0,0,0-.449.273,1.353,1.353,0,0,0-.13.567,4.165,4.165,0,0,0,.362,2.082c.671,1.372,1.967,1.541,3.27,1.51l1.545-.037a4.888,4.888,0,0,0,2.73-.609,3.382,3.382,0,0,0,1.286-2.164A5.334,5.334,0,0,0,494.149,321.792Zm-3.445,1.945a1.8,1.8,0,0,1-1.595.185c-.235-.071-.135-.465.1-.394a1.45,1.45,0,0,0,1.3-.143C490.72,323.245,490.911,323.6,490.7,323.737Z" transform="translate(-483.937 -312.382)" fill="#3b455a"/>
                <path id="Path_117" data-name="Path 117" d="M490.611,278.928a7.4,7.4,0,0,0,.2-1.02,2.022,2.022,0,0,1-1,.086l0-.6a11.563,11.563,0,0,0-2.418-.3c-1.7-.139-3.255-.272-4.792.64a4.629,4.629,0,0,0-2.356,3.458,7.078,7.078,0,0,0,1.118,4.538,9.849,9.849,0,0,1-.136-1.66,3.269,3.269,0,0,1,.357-1.047,4.318,4.318,0,0,1,1.515-1.593,8.393,8.393,0,0,1,3.312-1.116,9.066,9.066,0,0,1,3.4,0c.5.135.587.261.892-.247a8.621,8.621,0,0,0,.438-1.136Z" transform="translate(-480.202 -277.003)" fill="#3b455a"/>
              </g>
            </g>
          </g>
          <g id="Group_136" data-name="Group 136">
            <g id="Group_133" data-name="Group 133">
              <g id="Group_129" data-name="Group 129">
                <g id="Group_125" data-name="Group 125">
                  <g id="Group_120" data-name="Group 120">
                    <g id="Group_119" data-name="Group 119">
                      <circle id="Ellipse_38" data-name="Ellipse 38" cx="21.613" cy="21.613" r="21.613" transform="translate(0 30.565) rotate(-45)" fill="#ebb044"/>
                    </g>
                  </g>
                  <g id="Group_122" data-name="Group 122" transform="translate(14.147 10.724)" opacity="0.08">
                    <g id="Group_121" data-name="Group 121" transform="translate(0 0)">
                      <path id="Path_118" data-name="Path 118" d="M445.579,74.788a21.616,21.616,0,0,1-25.048,33.88,21.615,21.615,0,1,0,25.048-33.88Z" transform="translate(-420.531 -74.788)"/>
                    </g>
                  </g>
                  <g id="Group_124" data-name="Group 124" transform="translate(10.402 10.56)" opacity="0.2">
                    <g id="Group_123" data-name="Group 123" transform="translate(0 0)">
                      <path id="Path_119" data-name="Path 119" d="M403.583,98.819A20.066,20.066,0,0,1,437.5,81.7a20.068,20.068,0,1,0-29.887,26.653A19.973,19.973,0,0,1,403.583,98.819Z" transform="translate(-401.596 -73.956)" fill="#fff"/>
                    </g>
                  </g>
                </g>
                <g id="Group_128" data-name="Group 128" transform="translate(22.084 33.666)">
                  <g id="Group_126" data-name="Group 126">
                    <path id="Path_120" data-name="Path 120" d="M460.661,193.338a9.246,9.246,0,0,0,18.193-2.557Z" transform="translate(-460.661 -190.781)" fill="#1c222d"/>
                  </g>
                  <g id="Group_127" data-name="Group 127" transform="translate(3.603 5.413)">
                    <path id="Path_121" data-name="Path 121" d="M478.877,220.517a9.237,9.237,0,0,0,12.38-1.539l-.112-.185C484.618,216.673,478.954,220.465,478.877,220.517Z" transform="translate(-478.877 -218.15)" fill="#d34e4e"/>
                  </g>
                </g>
              </g>
              <g id="Group_132" data-name="Group 132" transform="translate(16.979 23.241)">
                <g id="Group_130" data-name="Group 130" transform="translate(18.388)">
                  <path id="Path_122" data-name="Path 122" d="M527.835,141.119a4,4,0,0,1,7.323-1.1.644.644,0,0,1-.932.85c-1.349-.985-3.357-1.645-5.257.8a.644.644,0,0,1-1.134-.549Z" transform="translate(-527.815 -138.07)" fill="#1c222d"/>
                </g>
                <g id="Group_131" data-name="Group 131" transform="translate(0 2.585)">
                  <path id="Path_123" data-name="Path 123" d="M434.868,154.187a4,4,0,0,1,7.323-1.1.644.644,0,0,1-.931.85c-1.349-.985-3.356-1.645-5.257.8a.644.644,0,0,1-1.135-.549Z" transform="translate(-434.848 -151.138)" fill="#1c222d"/>
                </g>
              </g>
            </g>
            <g id="Group_134" data-name="Group 134" transform="translate(12.297 31.703)">
              <circle id="Ellipse_39" data-name="Ellipse 39" cx="3.773" cy="3.773" r="3.773" transform="translate(0 2.276) rotate(-17.555)" fill="#d34e4e"/>
            </g>
            <g id="Group_135" data-name="Group 135" transform="translate(42.083 27.605)">
              <circle id="Ellipse_40" data-name="Ellipse 40" cx="3.773" cy="3.773" r="3.773" transform="translate(0 0.865) rotate(-6.579)" fill="#d34e4e"/>
            </g>
          </g>
          <g id="Group_137" data-name="Group 137" transform="translate(8.875 42.231)">
            <path id="Path_124" data-name="Path 124" d="M401.038,235a.644.644,0,0,1,.08.165c.141.538-.107.9-.118,1.456-.005.247.521.6.082.874-.162.1-.594.29-.941.5a3.645,3.645,0,0,0-1.224,1.62,18.328,18.328,0,0,0-1.034,3.464,11.94,11.94,0,0,0-.525,3.731c.171.962,1.452,2.169,2.027,2.988q1.086,1.547,2.125,3.126a7.516,7.516,0,0,1,1.177,2.371,1.854,1.854,0,0,1-.211,1.544,2.4,2.4,0,0,1-.838.6,3.09,3.09,0,0,1-1.74.5,2.994,2.994,0,0,1-1.789-1.292,24.984,24.984,0,0,1-2.848-4.236c-.553-1.071-1.593-2.965-1.349-4.186a78.318,78.318,0,0,1,2.217-8.222c.236-.747.835-1.275,1.047-1.967.135-.442-.076-.886-.041-1.331a4.308,4.308,0,0,1,.388-1.406c.384-.781,1.27-.939,2.03-1.153a.933.933,0,0,1,.5-.051,1.349,1.349,0,0,1,.677.5A2.614,2.614,0,0,1,401.038,235Z" transform="translate(-393.876 -234.08)" fill="#eac5b0"/>
          </g>
          <g id="Group_140" data-name="Group 140" transform="translate(11.993 41.258)">
            <g id="Group_138" data-name="Group 138" transform="translate(32.755)">
              <path id="Path_125" data-name="Path 125" d="M576.967,230.083a.65.65,0,0,0-.08.165c-.141.537.107.9.119,1.456.005.247-.521.6-.082.874.162.1.594.29.941.5a3.644,3.644,0,0,1,1.224,1.62,18.35,18.35,0,0,1,1.034,3.464,11.934,11.934,0,0,1,.525,3.731c-.171.962-1.452,2.169-2.027,2.988q-1.086,1.547-2.125,3.126a7.52,7.52,0,0,0-1.177,2.371,1.855,1.855,0,0,0,.211,1.545,2.4,2.4,0,0,0,.838.6,3.091,3.091,0,0,0,1.74.5,3,3,0,0,0,1.789-1.292,25,25,0,0,0,2.847-4.236c.553-1.071,1.593-2.965,1.349-4.186a78.274,78.274,0,0,0-2.216-8.222c-.236-.747-.835-1.275-1.047-1.967-.135-.442.076-.886.041-1.331a4.309,4.309,0,0,0-.388-1.406c-.384-.781-1.27-.939-2.03-1.153a.935.935,0,0,0-.5-.051,1.351,1.351,0,0,0-.677.5A2.62,2.62,0,0,0,576.967,230.083Z" transform="translate(-575.245 -229.163)" fill="#eac5b0"/>
            </g>
            <g id="Group_139" data-name="Group 139" transform="translate(0 17.536)">
              <path id="Path_126" data-name="Path 126" d="M427.845,328.779l-.078-.97c-1.12.262-2.508.387-3.714.7-1.545-.541-3.277-.575-4.7-1.394a9.518,9.518,0,0,1-2.477-2.388c-.925-1.139-1.346-2.335-2.7-1.884-1.011.337-2.351,2.138-3.157,2.868l-1.174,1.062a.534.534,0,0,0-.2.3.522.522,0,0,0,.056.26,18.254,18.254,0,0,0,4.78,6.882,19.374,19.374,0,0,1,3.308,3.722c-.486,3.489,0,7.214,0,10.683,0,1.431-.965,16.761-.231,16.8a56.523,56.523,0,0,0,7.76-.534c1.161-.1,2.524.15,2.781-1.144a18.689,18.689,0,0,0,.084-2.975l.289-10.18c.025-.892.339-14.111.4-14.111l-2.959-5.393Z" transform="translate(-409.642 -321.768)" fill="#474ebb"/>
              <path id="Path_127" data-name="Path 127" d="M528.266,322.15a.532.532,0,0,0-.2-.3l-1.174-1.062c-.806-.73-2.146-2.531-3.157-2.868-1.354-.451-1.776.744-2.7,1.884a9.517,9.517,0,0,1-2.477,2.388c-1.521.878-3.4.853-5.026,1.519a2.691,2.691,0,0,0-.279.134c-.3-.062-.622-.131-.972-.217-.679-.167-2.141-.7-1.774.648.21.769,1.437,1.73,1.956,2.347l-2.959,5.393q.232,8.171.464,16.343.107,3.766.214,7.532c.025.872.046,1.744.074,2.615.012.391-.1,1.05.128,1.369.485.693,2.256.477,3.028.538a13.319,13.319,0,0,1,3.562.609,11.445,11.445,0,0,0,2.268.806.672.672,0,0,0,.52-.085.755.755,0,0,0,.2-.554c.277-3.74.283-7.6.49-11.376a68.216,68.216,0,0,0,.334-9.46,1.547,1.547,0,0,0-.019-.154c-.513-2.787-.177-5.218-.347-7.59a18.477,18.477,0,0,1,3.016-3.318,18.251,18.251,0,0,0,4.78-6.882A.523.523,0,0,0,528.266,322.15Z" transform="translate(-489.748 -317.824)" fill="#474ebb"/>
            </g>
          </g>
        </g>
        <g id="Group_180" data-name="Group 180" transform="translate(142.775 45.619)">
          <g id="Group_144" data-name="Group 144" transform="translate(0 12.57)">
            <g id="Group_142" data-name="Group 142">
              <path id="Path_128" data-name="Path 128" d="M785.943,314.768a.684.684,0,0,1,.192.027c.554.194.727.626,1.2.963.213.15.835-.1.814.444-.008.2-.1.691-.118,1.119a3.848,3.848,0,0,0,.7,2.027,27.39,27.39,0,0,0,5.787,5.949,1,1,0,0,0,.407.237,1.047,1.047,0,0,0,.775-.284,21.287,21.287,0,0,1,3.411-1.982,7.947,7.947,0,0,1,3.38-.89,3.573,3.573,0,0,1,3.015,1.523,2.79,2.79,0,0,1,.181,2.532c-.87,2-4.057,1.964-5.9,2.294a37.846,37.846,0,0,1-5.274.569,1.628,1.628,0,0,1-.648-.065,1.655,1.655,0,0,1-.552-.419,82.61,82.61,0,0,1-5.889-6.794c-.514-.647-.623-1.483-1.1-2.078-.307-.379-.821-.456-1.19-.75a4.549,4.549,0,0,1-1-1.17,2.959,2.959,0,0,1,.189-2.458.986.986,0,0,1,.249-.465,1.426,1.426,0,0,1,.835-.3A2.771,2.771,0,0,1,785.943,314.768Z" transform="translate(-783.92 -314.766)" fill="#eac5b0"/>
            </g>
            <g id="Group_143" data-name="Group 143" transform="translate(4.198 2.17)">
              <path id="Path_129" data-name="Path 129" d="M817.68,338.906a25.232,25.232,0,0,1-5.647.252,3.167,3.167,0,0,1-1.3-.314,3.475,3.475,0,0,1-.835-.739l-4.391-4.823c-.209-.229-.433-.525-.334-.819a.885.885,0,0,1,.378-.4l2.119-1.457a.735.735,0,0,1,.424-.174.646.646,0,0,1,.378.19c.689.6,1.052,1.529,1.8,2.059a3.063,3.063,0,0,0,2.408.381c3.429-.738,6.511-3.523,9.489-5.262a12.772,12.772,0,0,1,5.033-2.04,4.126,4.126,0,0,1,3.444,7.012,21.24,21.24,0,0,1-8.776,5.19A28.964,28.964,0,0,1,817.68,338.906Z" transform="translate(-805.144 -325.738)" fill="#8ec3cb"/>
            </g>
          </g>
          <g id="Group_176" data-name="Group 176" transform="translate(13.847)">
            <g id="Group_160" data-name="Group 160" transform="translate(0 37.547)">
              <g id="Group_150" data-name="Group 150" transform="translate(6.628 48.652)">
                <g id="Group_149" data-name="Group 149">
                  <g id="Group_146" data-name="Group 146" transform="translate(2.37)">
                    <g id="Group_145" data-name="Group 145">
                      <path id="Path_130" data-name="Path 130" d="M902.085,687.138l.61,4.387-2.6.359-.676-4.864Z" transform="translate(-899.419 -687.02)" fill="#edceaf"/>
                    </g>
                  </g>
                  <g id="Group_148" data-name="Group 148" transform="translate(0 4.147)">
                    <g id="Group_147" data-name="Group 147">
                      <path id="Path_131" data-name="Path 131" d="M890.63,707.985l2.358.466.766.643.1,1.737-6.063,1.239h0a1.374,1.374,0,0,1,.424-2.156l.273-.134Z" transform="translate(-887.438 -707.985)" fill="#3b455a"/>
                    </g>
                  </g>
                </g>
              </g>
              <g id="Group_159" data-name="Group 159" transform="translate(7.487 0.843)">
                <g id="Group_158" data-name="Group 158">
                  <g id="Group_156" data-name="Group 156" transform="translate(22.318 28.465)">
                    <g id="Group_155" data-name="Group 155">
                      <g id="Group_152" data-name="Group 152" transform="translate(0 0.795)">
                        <g id="Group_151" data-name="Group 151">
                          <path id="Path_132" data-name="Path 132" d="M1005.312,594.585c1.1-.363,2.165-1.083,3.271-1.34.056.861.139,1.719.211,2.578a16.857,16.857,0,0,1-4.173,1.39C1004.852,596.342,1005.149,595.472,1005.312,594.585Z" transform="translate(-1004.621 -593.245)" fill="#edceaf"/>
                        </g>
                      </g>
                      <g id="Group_154" data-name="Group 154" transform="translate(3.801)">
                        <g id="Group_153" data-name="Group 153">
                          <path id="Path_133" data-name="Path 133" d="M1024.285,592.55a.757.757,0,0,1-.151-.368c-.162-.632-.585-2.383.012-2.92.1-.087.142,0,.229.04a12.236,12.236,0,0,1,3.663,2.658,2.987,2.987,0,0,1,1.007,1.858,1.667,1.667,0,0,1-.238.821,6.335,6.335,0,0,1-.623,1.025c-.086.118-.157.25-.326.238-.337-.023-.5-.409-.565-.727a2.263,2.263,0,0,0-.3-.972,1.147,1.147,0,0,0-.348-.26C1025.791,593.456,1024.892,593.408,1024.285,592.55Z" transform="translate(-1023.837 -589.225)" fill="#3b455a"/>
                        </g>
                      </g>
                    </g>
                  </g>
                  <g id="Group_157" data-name="Group 157">
                    <path id="Path_134" data-name="Path 134" d="M895.882,473.6c2.121,3.769,5.242,5.412,9,6.577,4.3,1.334,8,.605,11.829-1.535.066-1.278-.057-2.548.038-3.748-4.258.675-6.314.526-9.188-3.278-4.154-5.5-.029-13.592-1.167-20.234a6.563,6.563,0,0,0-.727-2.194c-4.511-7.789-12.63-2.584-13.632,4.548A33.8,33.8,0,0,0,895.882,473.6Z" transform="translate(-891.783 -445.308)" fill="#3b455a"/>
                  </g>
                </g>
              </g>
              <path id="Path_135" data-name="Path 135" d="M873.379,447.352a26.839,26.839,0,0,0-1.523-6.308,47.5,47.5,0,0,0-11.287,2.364c-3.445,1.157-5.554,2.2-5.1,6.038.832,7.058-1.176,13.409-1.522,20.336-.2,4.026,1.433,7.4,3.212,10.884a124.7,124.7,0,0,1,5.452,12.263l3.672-.48c.531-5.589-.672-11.176-1.263-16.76a33.31,33.31,0,0,1,.462-11.7c1.066-4.187,3.516-2.879,5.812-5.516C873.523,455.91,873.877,451.448,873.379,447.352Z" transform="translate(-853.928 -441.044)" fill="#3b455a"/>
            </g>
            <g id="Group_161" data-name="Group 161" transform="translate(0.862 15.731)">
              <path id="Path_136" data-name="Path 136" d="M871.962,331.567a9.858,9.858,0,0,1,1.167,1.019l1,.967a11.36,11.36,0,0,1,2.313,4.291c2.841,7.738,4.237,18.472,3.019,26.754-6.061.812-13.177-.39-19.288-.934a1.529,1.529,0,0,1-1.84-1.694c-.245-5.21.593-10.861,1.383-16.046a56.181,56.181,0,0,1,1.359-6.5c.624-2.259,1.333-4.7,2.959-6.463,1.74-1.887,5.193-2.941,7.544-1.642A4.232,4.232,0,0,1,871.962,331.567Z" transform="translate(-858.286 -330.749)" fill="#8ec3cb"/>
            </g>
            <g id="Group_175" data-name="Group 175" transform="translate(3.032)">
              <g id="Group_163" data-name="Group 163" transform="translate(5.909 2.84)">
                <g id="Group_162" data-name="Group 162">
                  <path id="Path_137" data-name="Path 137" d="M904.116,280.407l.23-2.141a3.965,3.965,0,0,0,.407-.252c2.462-1.74,6.309-10.642-.548-12.271-6.226-1.479-5.509,6.956-4.144,10.423a5.241,5.241,0,0,0,.964,1.625c.294.325.353.258.332.651s-.378.827-.445,1.231a1.628,1.628,0,0,0,.25,1.249,1.68,1.68,0,0,0,.633.48,1.909,1.909,0,0,0,1.239.171A1.546,1.546,0,0,0,904.116,280.407Z" transform="translate(-899.131 -265.571)" fill="#fee0d4"/>
                </g>
              </g>
              <g id="Group_174" data-name="Group 174">
                <g id="Group_166" data-name="Group 166" transform="translate(4.782 6.506)">
                  <g id="Group_165" data-name="Group 165">
                    <g id="Group_164" data-name="Group 164">
                      <path id="Path_138" data-name="Path 138" d="M893.9,287.913a13.4,13.4,0,0,0,1.711,3.11,22.789,22.789,0,0,1,.456-6.211.6.6,0,0,0-.025-.462.561.561,0,0,0-.39-.187C893.037,283.726,893.151,285.984,893.9,287.913Z" transform="translate(-893.435 -284.108)" fill="#1a3151"/>
                    </g>
                  </g>
                </g>
                <g id="Group_173" data-name="Group 173">
                  <g id="Group_169" data-name="Group 169" transform="translate(12.19 2.912)">
                    <g id="Group_168" data-name="Group 168">
                      <g id="Group_167" data-name="Group 167">
                        <path id="Path_139" data-name="Path 139" d="M930.889,276.151c.443.564,1.344.364,1.969.012a6.975,6.975,0,0,0,3.246-7.557c-.6-2.391-3.729-4.057-4.2-1.038-.168,1.07.547,2.509.454,3.692A17.072,17.072,0,0,1,930.889,276.151Z" transform="translate(-930.889 -265.939)" fill="#1a3151"/>
                      </g>
                    </g>
                  </g>
                  <g id="Group_172" data-name="Group 172">
                    <g id="Group_171" data-name="Group 171">
                      <g id="Group_170" data-name="Group 170">
                        <path id="Path_140" data-name="Path 140" d="M874.1,252.294c-.289.13-.583.267-.893.406a1.817,1.817,0,0,1-1.8.044c-.2-.1-1.547-1.261-1.248-1.529-1.981,1.778-.171,4.152.684,5.853.576,1.146.761,2.794,1.968,3.5,1.327.781,2.161-.325,3.308-.857,1.011-.469,2.116-.749,3.147-1.173,1.712-.7,4.252-1.917,3.566-4.2-.8-2.67-3.57-3.215-6.02-2.892A9.2,9.2,0,0,0,874.1,252.294Z" transform="translate(-869.257 -251.214)" fill="#1a3151"/>
                      </g>
                    </g>
                  </g>
                </g>
              </g>
            </g>
          </g>
          <g id="Group_179" data-name="Group 179" transform="translate(19.425 18.542)">
            <g id="Group_178" data-name="Group 178" transform="translate(0 1.522)">
              <g id="Group_177" data-name="Group 177">
                <path id="Path_141" data-name="Path 141" d="M883.571,352.678a.69.69,0,0,1,.192-.02c.584.052.858.429,1.4.639.244.093.785-.3.9.231.042.2.076.693.16,1.113a3.848,3.848,0,0,0,1.171,1.795c.986.909,4.649,2.243,4.366,3.946-.664,4-5.964-2.338-6.555-2.782-.391-.293-.907-.241-1.337-.436a4.549,4.549,0,0,1-1.258-.889,2.96,2.96,0,0,1-.419-2.429.988.988,0,0,1,.127-.512,1.426,1.426,0,0,1,.736-.495A2.775,2.775,0,0,1,883.571,352.678Z" transform="translate(-882.131 -352.656)" fill="#eac5b0"/>
              </g>
            </g>
            <path id="Path_142" data-name="Path 142" d="M921.632,359.12c-.514,1.651-3.74.573-4.871.078a31.047,31.047,0,0,1-6.667-3.894.481.481,0,0,1-.118-.811l1.73-2.435a1.25,1.25,0,0,1,.452-.447c.733-.34,1.74.622,2.486.7.207-1.831-.89-3.385-1.431-5.05-.741-2.281,1.866-2.889,3.275-1.718a12.981,12.981,0,0,1,3.626,5.649,38.7,38.7,0,0,1,1.552,7A2.058,2.058,0,0,1,921.632,359.12Z" transform="translate(-904.332 -344.959)" fill="#8ec3cb"/>
          </g>
        </g>
        <g id="Group_181" data-name="Group 181" transform="translate(113.092 54.925)">
          <path id="Path_143" data-name="Path 143" d="M634.963,301.328c-.327-.332-.643-.677-.953-.964l-.157-1.341a.25.25,0,0,1,.16-.319l.714-.387a.373.373,0,0,1,.151-.055c.117-.007.21.094.283.186.253.318,1.154,1.387,1.178.521a.319.319,0,0,1,.251-.274.938.938,0,0,1,.395.01c.094.016.205.045.237.135a.272.272,0,0,1,0,.128,3.579,3.579,0,0,0-.066,1.307l.271,1.532c0,.026-.67.369-.731.407-.356.22-.209.317-.609.07A6.335,6.335,0,0,1,634.963,301.328Z" transform="translate(-633.845 -298.261)" fill="#eac5b0"/>
          <path id="Path_144" data-name="Path 144" d="M656.483,320.179l-8.832,1.1-4.464-9.834-2.329,1.383,2.39,14.475,3.089,3.24,6.075-.5Z" transform="translate(-639.471 -308.841)" fill="#ccd2d9"/>
        </g>
        <g id="Group_187" data-name="Group 187" transform="translate(115.803 51.877)">
          <g id="Group_183" data-name="Group 183" transform="translate(10.79 42.923)">
            <g id="Group_182" data-name="Group 182">
              <path id="Path_145" data-name="Path 145" d="M713.174,502.572l-3.24,20.864,1.15,15.073-2.36.737-2.112-13.928L702.1,499.867Z" transform="translate(-702.105 -499.867)" fill="#eac5b0"/>
            </g>
            <path id="Path_146" data-name="Path 146" d="M734.543,698.119l-.26,1.561.592,2.968,1.948-.165.367-4.4-.287-.7Z" transform="translate(-727.918 -658.316)" fill="#3b455a"/>
          </g>
          <g id="Group_184" data-name="Group 184" transform="translate(2.767 43.331)">
            <path id="Path_147" data-name="Path 147" d="M661.542,503.6l1.042,17.7,4.406,24.739,2.388-.029-1.062-22.937,3.1-21.146Z" transform="translate(-661.542 -501.927)" fill="#eac5b0"/>
            <path id="Path_148" data-name="Path 148" d="M676.9,722.813l-3.052,2,.381,1.5,5.588-1.192-.454-2.162Z" transform="translate(-671.417 -679.124)" fill="#3b455a"/>
          </g>
          <path id="Path_149" data-name="Path 149" d="M658.881,512.507l.1,20.541,2.808,13.85,6.4-.927L668,529.964l1.328-17.583-.658-2.663-9.253.94Z" transform="translate(-656.641 -464.847)" fill="#3b455a"/>
          <path id="Path_150" data-name="Path 150" d="M707.236,521.9l1.98,14.568,5.563-.775L713.5,521.823l2.064-17.733-1.212-4.8-9.348,1.409Z" transform="translate(-693.645 -456.479)" fill="#3b455a"/>
          <path id="Path_151" data-name="Path 151" d="M672.16,361.891c-.615-2.06-1.7-5.572-3.514-6.563l-.115-.061a9.136,9.136,0,0,0-1.151-.5,4.822,4.822,0,0,0-2.8-.584,7.9,7.9,0,0,0-2.73.262,6.521,6.521,0,0,0-1.147.507c-1.089.567-1.924.812-2.6,1.926a24.489,24.489,0,0,0-1.385,3.142c-3.725,8.731-6.751,20.386-9.168,29.614,1.142-.11,2.286-.3,3.426-.477a80.87,80.87,0,0,1,15.854,3.745c1.386.824,2.75,1.692,4.1,2.574-.346-.226,1.3-7.529,1.434-8.352.471-2.979.883-5.968,1.164-8.97A42.215,42.215,0,0,0,672.16,361.891Z" transform="translate(-647.554 -340.053)" fill="#ccd2d9"/>
          <g id="Group_186" data-name="Group 186" transform="translate(11.408)">
            <path id="Path_152" data-name="Path 152" d="M727.955,306.513c-.963-3.661-6.045-5.218-7.483-1.115a8.423,8.423,0,0,0-.554,3.848,4.148,4.148,0,0,0,2.017,3.17l.02.009c.2.1-.909,2.205-.987,2.373a3.849,3.849,0,0,0-.306.815,3.468,3.468,0,0,0,.281,1.891,16.244,16.244,0,0,0,.705,1.626.312.312,0,0,0,.09.123c.1.071.239,0,.341-.067a8.8,8.8,0,0,0,2.129-2.054,2.264,2.264,0,0,0,.337-.587,2.327,2.327,0,0,0,.1-.765c0-.72-.61-2.5-.247-3.06.138-.214.814-.371,1.048-.515a5.136,5.136,0,0,0,1.046-.87A5.383,5.383,0,0,0,727.955,306.513Z" transform="translate(-716.974 -298.983)" fill="#eac5b0"/>
            <g id="Group_185" data-name="Group 185">
              <path id="Path_153" data-name="Path 153" d="M708.79,299.114a4.627,4.627,0,0,0-.4,3.113c.143,1.024.03,2.024.267,3.038-.109.158-.352.054-.5-.063q-1.334-1.023-2.64-2.084a.612.612,0,0,1-.277-.671,13.489,13.489,0,0,1,2.912-7.167c.774-1.09,2.841-2.294,4.014-.994a2.168,2.168,0,0,1,.434,1.1,1.814,1.814,0,0,1,.022.714c-.214.932-1.086.88-1.769,1.178A4.737,4.737,0,0,0,708.79,299.114Z" transform="translate(-705.234 -291.571)" fill="#3b455a"/>
              <path id="Path_154" data-name="Path 154" d="M735.817,292.27a8.811,8.811,0,0,1-.437,2.526c-.085.268-.6.893-.615,1.074-.047.527,1.036,1.763,1.318,2.223l5.08-2.819a.632.632,0,0,0,.422-.675,17.4,17.4,0,0,0-1.615-7.513c-1.021-2.423-3.31-4.393-6.007-4.224-2.179.136-3.7,1.743-2.907,3.988.6,1.695,2.71,2.054,3.858,3.212A2.829,2.829,0,0,1,735.817,292.27Z" transform="translate(-725.776 -282.852)" fill="#3b455a"/>
            </g>
          </g>
        </g>
        <g id="Group_190" data-name="Group 190" transform="translate(21.46 48.811)">
          <g id="Group_188" data-name="Group 188" transform="translate(8.318)">
            <path id="Path_155" data-name="Path 155" d="M216.843,268.159a.61.61,0,0,0-.083.151c-.161.5.054.854.036,1.375-.008.232-.522.54-.123.818.147.1.543.3.859.519a3.434,3.434,0,0,1,1.066,1.587,24.437,24.437,0,0,1,1.111,7.32.89.89,0,0,1-.051.417.934.934,0,0,1-.62.4,18.975,18.975,0,0,0-3.247,1.357,7.086,7.086,0,0,0-2.454,1.924,3.187,3.187,0,0,0-.542,2.964,2.489,2.489,0,0,0,1.7,1.494c1.892.46,3.582-1.827,4.809-2.958a33.756,33.756,0,0,0,3.246-3.443,1.454,1.454,0,0,0,.3-.5,1.476,1.476,0,0,0,0-.618,73.706,73.706,0,0,0-1.657-7.848c-.183-.715-.719-1.242-.882-1.9-.1-.423.118-.829.108-1.25a4.055,4.055,0,0,0-.292-1.343c-.321-.755-1.145-.949-1.849-1.19a.881.881,0,0,0-.465-.074,1.273,1.273,0,0,0-.662.432A2.474,2.474,0,0,0,216.843,268.159Z" transform="translate(-212.627 -267.352)" fill="#eac5b0"/>
          </g>
          <g id="Group_189" data-name="Group 189" transform="translate(0 13.955)">
            <path id="Path_156" data-name="Path 156" d="M184.817,342.191l-1.988-4.283c.043.092-6.663,2.611-7.057,2.775a11.394,11.394,0,0,0-4.162,2.479,3.681,3.681,0,0,0,3.13,6.227,19.383,19.383,0,0,0,10.629-5.306.494.494,0,0,0,.144-.205.5.5,0,0,0-.068-.334Z" transform="translate(-170.57 -337.908)" fill="#d34e4e"/>
          </g>
        </g>
        <g id="Group_196" data-name="Group 196" transform="translate(1.199 90.012)">
          <g id="Group_193" data-name="Group 193">
            <g id="Group_192" data-name="Group 192" transform="translate(0 15.388)">
              <g id="Group_191" data-name="Group 191">
                <path id="Path_157" data-name="Path 157" d="M68.757,556.087c-.089.539-.148,1.08-.192,1.577a16.908,16.908,0,0,1-.157,2.657,9.43,9.43,0,0,0-.251.986,1.5,1.5,0,0,0,.145.988,1.366,1.366,0,0,0,.935.538,1.732,1.732,0,0,0,2.3-1.562,9.049,9.049,0,0,0,.085-2.7c0-1.436-.384-2.661-.325-4.107a1.165,1.165,0,0,0-.122-.709.784.784,0,0,0-.677-.3,1.226,1.226,0,0,0-1.215.648A8.964,8.964,0,0,0,68.757,556.087Z" transform="translate(-68.133 -553.456)" fill="#3b455a"/>
              </g>
              <path id="Path_158" data-name="Path 158" d="M74.6,559.566a3.208,3.208,0,0,0-.671.817c-.13.2-.262.463-.131.662a.622.622,0,0,0,.208.173l.977.593a.347.347,0,0,0,.216.072.341.341,0,0,0,.165-.093,10.766,10.766,0,0,0,.9-.851C77.533,559.583,75.741,558.675,74.6,559.566Z" transform="translate(-72.633 -558.073)" fill="#eac5b0"/>
            </g>
            <path id="Path_159" data-name="Path 159" d="M99.769,480.464a1.394,1.394,0,0,0-.635-.731,27.276,27.276,0,0,0-9.5-4.074c-.289-.064-2.127,5.649-2.3,6.2-.686,2.152-1.271,4.335-1.772,6.537q-.823,3.62-1.7,7.227a31.447,31.447,0,0,0-3.586-3.026,1.449,1.449,0,0,0-.723-.335,1.388,1.388,0,0,0-.885.375,10.252,10.252,0,0,0-1.264,1.15.982.982,0,0,0-.292.482,1.031,1.031,0,0,0,.118.55c1.261,3.007,3.258,7.842,4.859,10.686a3.754,3.754,0,0,0,3.766,1.729,3.563,3.563,0,0,0,.989-.257c.4-.14.829-.138,1.229-.277a1.66,1.66,0,0,0,.654-.5,24.956,24.956,0,0,0,3.686-6.5,67.778,67.778,0,0,0,2.694-7.309q.086-.274.175-.545c1.222-3.706,2.871-6.9,4.347-10.534A1.284,1.284,0,0,0,99.769,480.464Z" transform="translate(-75.332 -475.658)" fill="#474ebb"/>
          </g>
          <g id="Group_195" data-name="Group 195" transform="translate(18.595 0.246)">
            <g id="Group_194" data-name="Group 194" transform="translate(1.058 41.52)">
              <path id="Path_160" data-name="Path 160" d="M168.594,692.161a8.943,8.943,0,0,0,1.615.271,28.023,28.023,0,0,0,1.068-5.612c-1.09.647-1.609-.088-2.107,1.609A29.146,29.146,0,0,1,168.594,692.161Z" transform="translate(-168.377 -686.82)" fill="#eac5b0"/>
              <path id="Path_161" data-name="Path 161" d="M169.879,709.164c0,1.044.823,2.169,1.278,3.109a.643.643,0,0,1-.1.84,1.342,1.342,0,0,1-.545.513,1.277,1.277,0,0,1-.735-.008q-.61-.134-1.206-.323a.833.833,0,0,1-.28-.13.863.863,0,0,1-.208-.3,3.15,3.15,0,0,1-.5-1.595,9.612,9.612,0,0,0-.021-1.967c-.059-.312-.137-.712.131-.883.207-.133.586.05.811.087a3.063,3.063,0,0,1,1.131.249.53.53,0,0,1,.193.166A.444.444,0,0,1,169.879,709.164Z" transform="translate(-167.495 -704.108)" fill="#3b455a"/>
            </g>
            <path id="Path_162" data-name="Path 162" d="M162.88,490.348c.232,4.638.728,9.258.377,13.928-.434,5.769-.065,11.641-.717,17.355a13.946,13.946,0,0,0,2.017.535c.785.146,2.049.316,2.58-.425a5.244,5.244,0,0,0,.453-1.557c.37-1.427.707-2.862,1.04-4.3a113.391,113.391,0,0,0,2.485-12.284c.514-4.357,1.066-8.718,1.672-13.045.314-2.237.542-4.485.664-6.74.031-.581.341-6.575.048-6.618a27.276,27.276,0,0,0-10.323.439,1.393,1.393,0,0,0-.853.458,1.286,1.286,0,0,0-.174.844c.064,2.827.465,5.585.589,8.42C162.781,488.346,162.829,489.334,162.88,490.348Z" transform="translate(-162.147 -476.902)" fill="#474ebb"/>
          </g>
        </g>
        <path id="Path_163" data-name="Path 163" d="M121.505,354.916q-.085.028-.168.06a9.468,9.468,0,0,0-2.5,1.617,5.045,5.045,0,0,0-2.189,2.748,33.819,33.819,0,0,0-.94,4.012c-1.319,6.877-1.574,13.726-2.521,20.655-.258,1.886-.457,4.1.938,5.4,2.475-1.926,5.586-2.037,8.588-2.04,2.108,0,4.169-.685,6.282-.449,2.019.225,3.783-.28,5.833-.146.494.032,1.124.027,1.318-.429a26.942,26.942,0,0,1-.857-6.647c-.415-5.782-2.331-11.33-3.1-17.073-.263-1.952-.4-5.192-1.915-6.67-1.643-1.606-5.39-1.638-7.5-1.324A7.253,7.253,0,0,0,121.505,354.916Z" transform="translate(-102.928 -288.429)" fill="#d34e4e"/>
        <g id="Group_200" data-name="Group 200" transform="translate(9.633 47.672)">
          <g id="Group_199" data-name="Group 199">
            <g id="Group_198" data-name="Group 198" transform="translate(8.058 4.887)">
              <g id="Group_197" data-name="Group 197" transform="translate(0 2.332)">
                <path id="Path_164" data-name="Path 164" d="M153.968,309.585a.756.756,0,0,0,.143.194,1.648,1.648,0,0,0,.923.428,4.09,4.09,0,0,0,1.338-.094c.6-.114.575-.463.662-1,.047-.3.077-.594.1-.892.012-.164-.051-.749.053-.864.071-.078.359-.052.485-.117a1.391,1.391,0,0,0,.488-.484,3.91,3.91,0,0,0,.405-.992l.545-1.79a9.478,9.478,0,0,0,.432-1.858,3.942,3.942,0,0,0-.786-3.005,4.315,4.315,0,0,0-2.5-.974,5.209,5.209,0,0,0-3.383.684,2.786,2.786,0,0,0-1.033,1.02,4.509,4.509,0,0,0-.3,2.347l.11,2.221a2.964,2.964,0,0,0,.786,2.295c.339.245.782.3,1.072.612a2.206,2.206,0,0,1,.355,1.484A1.822,1.822,0,0,0,153.968,309.585Z" transform="translate(-151.515 -298.085)" fill="#eac5b0"/>
              </g>
              <path id="Path_165" data-name="Path 165" d="M171.289,290.557a1.243,1.243,0,0,1,.1.216c.136.393.044.836.177,1.229.211.624.939,1,1.049,1.649.09.531-.273,1.036-.3,1.574-.033.587.343,1.144.284,1.723a3.834,3.834,0,0,1-.671,1.615c.093-.125.936-.081,1.155-.214a.885.885,0,0,0,.473-.683,7.058,7.058,0,0,1,.177-1.044c.189-.436.578-.756.715-1.221.186-.634-.152-1.3-.125-1.964.04-1,.9-1.941.59-2.891-.184-.557-.725-.913-1.029-1.415a7.571,7.571,0,0,1-.476-1.246,1.486,1.486,0,0,0-.863-.958,7.258,7.258,0,0,0-.736-.087,9.049,9.049,0,0,1-1.176-.506,2.222,2.222,0,0,0-1.941.882,1.014,1.014,0,0,0,.177,1.334C169.435,289.27,170.817,289.74,171.289,290.557Z" transform="translate(-165.143 -286.297)" fill="#3b455a"/>
            </g>
            <path id="Path_166" data-name="Path 166" d="M134.447,284.145a11.077,11.077,0,0,0-1.094.737,3.27,3.27,0,0,0-.759,2.358,15.841,15.841,0,0,0-.268,2.214,1.927,1.927,0,0,0,.71,1.376c.536.389,1.377.453,1.616,1.07.26.671-.435,1.515-.013,2.1.233.321.689.369,1.021.584a2.93,2.93,0,0,1,.789,1.051,1.342,1.342,0,0,0,1.01.77,3.688,3.688,0,0,0-.25-1.822c-.168-.359-.661-1.02-.282-1.408.239-.323.8-.428.817-.829a.927.927,0,0,0-.228-.506,2.309,2.309,0,0,1-.17-2.1,3,3,0,0,1,1.49-1.536c.77-.373.646-.561.869-1.3.206-.678.591-.837,1.2-1.085a1.287,1.287,0,0,0,.927-.873,1.493,1.493,0,0,0,.116-1.244,2.533,2.533,0,0,0-.775-.8,3.288,3.288,0,0,0-2.1-.916c-.433.031-.84.235-1.274.259-.289.016-.577-.047-.866-.057a2.3,2.3,0,0,0-1.413.427c-.4.3-.392.606-.616,1.027A1.506,1.506,0,0,1,134.447,284.145Z" transform="translate(-128.053 -277.951)" fill="#3b455a"/>
            <path id="Path_167" data-name="Path 167" d="M118.915,265.016c.076-.469.027-1.08-.421-1.238-.245-.087-.52.008-.776-.044-.544-.111-.728-.769-1.013-1.244a.412.412,0,0,0-.169-.177.667.667,0,0,0-.351.009c-.541.066-.952-.468-1.461-.661a1.279,1.279,0,0,0-1.614.8c-.078.266-.064.552-.138.819-.3,1.083-1.883,1.544-1.923,2.666-.027.758.715,1.485.426,2.187-.184.449-.762.755-.7,1.235a.669.669,0,0,0,.684.515,1.344,1.344,0,0,0,.834-.381c.373-.326.654-.744,1.01-1.089a1.688,1.688,0,0,1,1.321-.564c.476.059.907.43,1.38.351.379-.063.66-.4,1.031-.5a3.5,3.5,0,0,1,1.068.069c.358.022.8-.165.808-.524a.9.9,0,0,1,.005-.26c.077-.231.472-.218.547-.45-.187-.289-.451-.185-.585-.562A2.07,2.07,0,0,1,118.915,265.016Z" transform="translate(-110.775 -261.589)" fill="#3b455a"/>
          </g>
        </g>
        <g id="Group_203" data-name="Group 203" transform="translate(7.278 67.069)">
          <g id="Group_201" data-name="Group 201" transform="translate(0 6.771)">
            <path id="Path_168" data-name="Path 168" d="M109.534,413.61a.608.608,0,0,0,.02-.171c-.041-.522-.374-.77-.556-1.259-.081-.218.277-.7-.2-.8-.175-.039-.618-.074-.992-.154a3.431,3.431,0,0,1-1.589-1.063,24.437,24.437,0,0,1-3.808-6.349.89.89,0,0,1-.111-.405.934.934,0,0,1,.422-.6,18.989,18.989,0,0,0,2.488-2.489,7.088,7.088,0,0,0,1.539-2.711,3.188,3.188,0,0,0-.625-2.948,2.489,2.489,0,0,0-2.142-.735c-1.925.293-2.62,3.051-3.325,4.563a33.766,33.766,0,0,0-1.7,4.418,1.45,1.45,0,0,0-.092.573,1.478,1.478,0,0,0,.235.572,73.744,73.744,0,0,0,4.514,6.63c.441.591,1.137.876,1.54,1.426.257.351.206.812.375,1.2a4.054,4.054,0,0,0,.78,1.131,2.64,2.64,0,0,0,2.162.4.88.88,0,0,0,.458-.108,1.273,1.273,0,0,0,.449-.651A2.466,2.466,0,0,0,109.534,413.61Z" transform="translate(-98.867 -393.892)" fill="#eac5b0"/>
          </g>
          <g id="Group_202" data-name="Group 202" transform="translate(1.175)">
            <path id="Path_169" data-name="Path 169" d="M106.1,370.675l3.467,3.207c-.074-.069,5.171-4.947,5.473-5.248a11.4,11.4,0,0,0,2.909-3.874,3.681,3.681,0,0,0-5.261-4.571,19.379,19.379,0,0,0-7.816,8.946.493.493,0,0,0-.056.245.5.5,0,0,0,.19.283Z" transform="translate(-104.81 -359.661)" fill="#d34e4e"/>
          </g>
        </g>
        <g id="Group_220" data-name="Group 220" transform="translate(0 12.513)">
          <g id="Group_219" data-name="Group 219">
            <g id="Group_210" data-name="Group 210">
              <g id="Group_205" data-name="Group 205">
                <g id="Group_204" data-name="Group 204">
                  <circle id="Ellipse_41" data-name="Ellipse 41" cx="18.055" cy="18.055" r="18.055" transform="translate(0 25.533) rotate(-45)" fill="#ebb044"/>
                </g>
              </g>
              <g id="Group_207" data-name="Group 207" transform="translate(8.256 13.268)" opacity="0.08">
                <g id="Group_206" data-name="Group 206">
                  <path id="Path_170" data-name="Path 170" d="M134.362,150.914a18.057,18.057,0,0,1-30.553,17.473,18.056,18.056,0,1,0,30.553-17.473Z" transform="translate(-103.809 -150.914)"/>
                </g>
              </g>
              <g id="Group_209" data-name="Group 209" transform="translate(8.673 8.782)">
                <g id="Group_208" data-name="Group 208">
                  <path id="Path_171" data-name="Path 171" d="M107.247,142.584a16.762,16.762,0,0,1,31.7-1.674,16.764,16.764,0,1,0-31.821,10.319A16.687,16.687,0,0,1,107.247,142.584Z" transform="translate(-105.919 -128.237)" fill="#fff" opacity="0.2"/>
                </g>
              </g>
            </g>
            <g id="Group_216" data-name="Group 216" transform="translate(18.903 17.323)">
              <g id="Group_215" data-name="Group 215">
                <g id="Group_212" data-name="Group 212">
                  <g id="Group_211" data-name="Group 211">
                    <path id="Path_172" data-name="Path 172" d="M160.339,173.964c-.336,1.192-1.182,2-1.889,1.8s-1.008-1.327-.672-2.519,1.182-2,1.889-1.8S160.675,172.773,160.339,173.964Z" transform="translate(-157.641 -171.415)" fill="#1c222d"/>
                  </g>
                </g>
                <g id="Group_214" data-name="Group 214" transform="translate(12.803 3.613)">
                  <g id="Group_213" data-name="Group 213">
                    <path id="Path_173" data-name="Path 173" d="M225.07,192.23c-.336,1.192-1.182,2-1.889,1.8s-1.008-1.327-.671-2.519,1.182-2,1.889-1.8S225.406,191.038,225.07,192.23Z" transform="translate(-222.372 -189.68)" fill="#1c222d"/>
                  </g>
                </g>
              </g>
            </g>
            <g id="Group_217" data-name="Group 217" transform="translate(13.233 23.882)">
              <path id="Path_174" data-name="Path 174" d="M129.133,204.577a12.21,12.21,0,0,0,23.352,6.589Z" transform="translate(-128.972 -204.577)" fill="#1c222d"/>
            </g>
            <g id="Group_218" data-name="Group 218" transform="translate(14.969 31.913)">
              <path id="Path_175" data-name="Path 175" d="M137.752,245.382a12.2,12.2,0,0,0,15.783,4.728l-.037-.283C146.737,243.791,137.873,245.36,137.752,245.382Z" transform="translate(-137.752 -245.183)" fill="#d34e4e"/>
            </g>
          </g>
        </g>
        <g id="Group_235" data-name="Group 235" transform="translate(65.858 56.704)">
          <g id="Group_227" data-name="Group 227">
            <g id="Group_222" data-name="Group 222">
              <g id="Group_221" data-name="Group 221">
                <circle id="Ellipse_42" data-name="Ellipse 42" cx="32.176" cy="32.176" r="32.176" transform="translate(0 45.504) rotate(-45)" fill="#ebb044"/>
              </g>
            </g>
            <g id="Group_224" data-name="Group 224" transform="translate(18.39 18.042)" opacity="0.08">
              <g id="Group_223" data-name="Group 223">
                <path id="Path_176" data-name="Path 176" d="M531.966,398.473a32.181,32.181,0,0,1-43.948,44.756,32.179,32.179,0,1,0,43.948-44.756Z" transform="translate(-488.018 -398.473)"/>
              </g>
            </g>
            <g id="Group_226" data-name="Group 226" transform="translate(15.477 15.704)" opacity="0.2">
              <g id="Group_225" data-name="Group 225">
                <path id="Path_177" data-name="Path 177" d="M475.516,419.848a29.873,29.873,0,0,1,53.555-18.211,29.876,29.876,0,1,0-49.585,33.1A29.735,29.735,0,0,1,475.516,419.848Z" transform="translate(-473.292 -386.653)" fill="#fff"/>
              </g>
            </g>
          </g>
          <g id="Group_228" data-name="Group 228" transform="translate(30.505 48.51)">
            <path id="Path_178" data-name="Path 178" d="M551.079,552.826a1.062,1.062,0,0,0-1.728,1.158,16.129,16.129,0,0,0,29.827.3,1.061,1.061,0,0,0-1.714-1.171C572.755,557.675,562.758,564.172,551.079,552.826Z" transform="translate(-549.268 -552.515)" fill="#1c222d"/>
          </g>
          <g id="Group_234" data-name="Group 234" transform="translate(31.279 33.465)">
            <g id="Group_233" data-name="Group 233">
              <g id="Group_230" data-name="Group 230">
                <g id="Group_229" data-name="Group 229">
                  <ellipse id="Ellipse_43" data-name="Ellipse 43" cx="2.371" cy="3.996" rx="2.371" ry="3.996" fill="#1c222d"/>
                </g>
              </g>
              <g id="Group_232" data-name="Group 232" transform="translate(23.708)">
                <g id="Group_231" data-name="Group 231">
                  <ellipse id="Ellipse_44" data-name="Ellipse 44" cx="2.371" cy="3.996" rx="2.371" ry="3.996" fill="#1c222d"/>
                </g>
              </g>
            </g>
          </g>
        </g>
        <g id="Group_250" data-name="Group 250" transform="translate(143.313 29.166)">
          <g id="Group_249" data-name="Group 249">
            <g id="Group_242" data-name="Group 242" transform="translate(1.576)">
              <g id="Group_237" data-name="Group 237">
                <g id="Group_236" data-name="Group 236">
                  <circle id="Ellipse_45" data-name="Ellipse 45" cx="18.968" cy="18.968" r="18.968" transform="translate(0 37.927) rotate(-88.718)" fill="#ebb044"/>
                </g>
              </g>
              <g id="Group_239" data-name="Group 239" transform="translate(3.901 2.749)" opacity="0.08">
                <g id="Group_238" data-name="Group 238">
                  <path id="Path_179" data-name="Path 179" d="M838.967,181.928A18.971,18.971,0,0,1,814.329,209.5a18.97,18.97,0,1,0,24.638-27.574Z" transform="translate(-814.329 -181.928)"/>
                </g>
              </g>
              <g id="Group_241" data-name="Group 241" transform="translate(1.689 1.824)">
                <g id="Group_240" data-name="Group 240">
                  <path id="Path_180" data-name="Path 180" d="M804.564,197.584a17.611,17.611,0,0,1,31.031-12.209,17.612,17.612,0,1,0-28.28,20.866A17.528,17.528,0,0,1,804.564,197.584Z" transform="translate(-803.142 -177.25)" fill="#fff" opacity="0.2"/>
                </g>
              </g>
            </g>
            <g id="Group_245" data-name="Group 245" transform="translate(9.355 12.83)">
              <g id="Group_243" data-name="Group 243" transform="translate(0 0.767)">
                <path id="Path_181" data-name="Path 181" d="M840.466,238.828a3.514,3.514,0,0,0-6.5.241.565.565,0,0,0,.942.581c1-1.069,2.627-1.965,4.664-.164a.565.565,0,0,0,.889-.658Z" transform="translate(-833.935 -236.771)" fill="#1c222d"/>
              </g>
              <g id="Group_244" data-name="Group 244" transform="translate(16.279)">
                <path id="Path_182" data-name="Path 182" d="M922.768,234.951a3.514,3.514,0,0,0-6.495.241.565.565,0,0,0,.942.581c1-1.069,2.626-1.965,4.664-.164a.565.565,0,0,0,.889-.658Z" transform="translate(-916.238 -232.894)" fill="#1c222d"/>
              </g>
            </g>
            <g id="Group_246" data-name="Group 246" transform="translate(0 19.864)">
              <path id="Path_183" data-name="Path 183" d="M799.3,271.952c0-.01,0-.02,0-.03a3.492,3.492,0,0,0-3.594-3.461,3.016,3.016,0,0,0-2.8,2.41h0a3.016,3.016,0,0,0-3.011-2.137,3.492,3.492,0,0,0-3.253,3.783c0,.01,0,.02,0,.03.008.412.216,4.6,6.7,7.711h0C799.518,276.55,799.331,272.363,799.3,271.952Z" transform="translate(-786.64 -268.458)" fill="#d34e4e"/>
            </g>
            <g id="Group_248" data-name="Group 248" transform="translate(17.995 19.636)">
              <g id="Group_247" data-name="Group 247">
                <path id="Path_184" data-name="Path 184" d="M881.085,277.594a3.127,3.127,0,0,1-2.625-5.03,3.127,3.127,0,1,1,4.811-3.98.536.536,0,1,1-.864.634,2.055,2.055,0,1,0-2.866,2.876.536.536,0,0,1,.039.835,2.055,2.055,0,1,0,3.115,2.608.536.536,0,1,1,.915.558A3.125,3.125,0,0,1,881.085,277.594Z" transform="translate(-877.62 -267.305)" fill="#1c222d"/>
              </g>
            </g>
          </g>
        </g>
        <g id="Group_251" data-name="Group 251" transform="translate(131.768 69.317)">
          <path id="Path_185" data-name="Path 185" d="M731.293,504.8a4.058,4.058,0,0,1-.389.827,1.256,1.256,0,0,1-.3.358,1.476,1.476,0,0,1-.292.156l-.716.317a.436.436,0,0,1-.254.055.428.428,0,0,1-.169-.091q-.4-.306-.787-.639a.344.344,0,0,1-.1-.127.331.331,0,0,1,.1-.306c.353-.439.226-.6.339-1.078a1.367,1.367,0,0,1,.547-.694q.606-.539,1.215-1.073a9.7,9.7,0,0,1,1.1.693,7.322,7.322,0,0,0-.168,1.184A4.128,4.128,0,0,1,731.293,504.8Z" transform="translate(-728.27 -476.497)" fill="#eac5b0"/>
          <path id="Path_186" data-name="Path 186" d="M737.472,371.557a2.59,2.59,0,0,0-.463.587,4.852,4.852,0,0,0-.458,3.274,48.364,48.364,0,0,0,1.67,5.133l1.725,5.862L735.3,397.377l2.247,1.263,8.131-12.162c-.889-2.557-1.768-5.051-2.491-7.645-.648-2.325-.869-4.963-2.51-6.847A2.175,2.175,0,0,0,737.472,371.557Z" transform="translate(-733.911 -371.025)" fill="#ccd2d9"/>
        </g>
        <g id="Group_279" data-name="Group 279" transform="translate(29.777 57.203)">
          <path id="Path_187" data-name="Path 187" d="M298.2,630.588c-.414,2.247-.753,4.808.705,6.6,1.406,1.723,3.924,2.033,6.177,2.213,3.762.3,7.825.532,11.021-1.423a8.683,8.683,0,0,0,4.059-6.241,1.2,1.2,0,0,0-.011-.48,1.328,1.328,0,0,0-.408-.551l-4.073-3.859a4.922,4.922,0,0,0-1.075-.843,4.8,4.8,0,0,0-1.1-.367c-3.58-.861-8.246-2-11.948-1.435C298.332,624.687,298.688,627.936,298.2,630.588Z" transform="translate(-280.987 -561.886)" fill="#3b455a"/>
          <g id="Group_254" data-name="Group 254" transform="translate(7.867 29.163)">
            <g id="Group_253" data-name="Group 253">
              <g id="Group_252" data-name="Group 252">
                <path id="Path_188" data-name="Path 188" d="M263.967,480.047a2.6,2.6,0,0,0-.44-2.984l-4.216-4.4a11.873,11.873,0,0,1-2.447-2.71,30.074,30.074,0,0,1-1.454-6.056,11.321,11.321,0,0,1-.557-3.268c.024-.187.752-1.782.71-1.811l-.34-.28-.276.34-.308.03.5-1.2-1.4-.489-1.342,1.072a13.619,13.619,0,0,1,.718,3.161c-.01.462-.1.919-.145,1.378-.085.789-.063,1.583-.074,2.375-.01.766-.171,1.533-.171,2.287,0,1.683.012,3.366.019,5.049l6.851,8.011A2.657,2.657,0,0,0,263.967,480.047Z" transform="translate(-252.395 -457.222)" fill="#b97262"/>
              </g>
            </g>
            <path id="Path_189" data-name="Path 189" d="M275.236,524.194q.069-.329.143-.657c.922-.04,1.851.08,2.78.013,1.143-.083,2.267-.343,3.408-.454.513-.05,1.029-.07,1.544-.09,2.276-.088.723,3.335.42,4.53a40.65,40.65,0,0,1-1.688,5.25,25.367,25.367,0,0,1-1.224,2.629c-.235.432-.7,1.818-1.187,1.947-.394.1-.717-.3-.935-.647a14.344,14.344,0,0,0-4.215-4.286.641.641,0,0,1-.285-.29.625.625,0,0,1,0-.294C274.364,529.286,274.706,526.7,275.236,524.194Z" transform="translate(-269.708 -509.993)" fill="#7fc5a3"/>
          </g>
          <g id="Group_257" data-name="Group 257" transform="translate(29.265 28.41)">
            <g id="Group_256" data-name="Group 256" transform="translate(2.764)">
              <g id="Group_255" data-name="Group 255">
                <path id="Path_190" data-name="Path 190" d="M374.837,476.237a2.6,2.6,0,0,1,.44-2.984l4.216-4.4a11.868,11.868,0,0,0,2.447-2.71,30.074,30.074,0,0,0,1.454-6.056,11.322,11.322,0,0,0,.557-3.268c-.024-.186-.752-1.782-.71-1.811l.34-.28.276.34.308.03-.5-1.2,1.4-.489,1.342,1.071a13.616,13.616,0,0,0-.718,3.161c.01.462.1.919.145,1.378.085.789.063,1.583.074,2.375.01.766.171,1.533.171,2.287,0,1.683-.012,3.366-.019,5.049l-6.851,8.01A2.657,2.657,0,0,1,374.837,476.237Z" transform="translate(-374.552 -453.412)" fill="#b97262"/>
              </g>
            </g>
            <path id="Path_191" data-name="Path 191" d="M369.672,520.383q-.069-.329-.143-.657c-.922-.04-1.851.08-2.78.013-1.143-.083-2.267-.343-3.408-.454-.513-.05-1.029-.07-1.544-.09-2.276-.088-.723,3.335-.42,4.53a40.651,40.651,0,0,0,1.688,5.25,25.4,25.4,0,0,0,1.224,2.629c.235.432.7,1.818,1.187,1.947.394.1.717-.3.935-.647a14.347,14.347,0,0,1,4.215-4.286.642.642,0,0,0,.285-.29.625.625,0,0,0,0-.294C370.543,525.475,370.2,522.893,369.672,520.383Z" transform="translate(-360.578 -506.183)" fill="#7fc5a3"/>
          </g>
          <g id="Group_260" data-name="Group 260" transform="translate(15.542 25.615)">
            <path id="Path_192" data-name="Path 192" d="M299.574,516.831a6.051,6.051,0,0,0-4.51,2.9,14.793,14.793,0,0,0-1.4,4.318,108.309,108.309,0,0,0-1.636,11.647c-.4,3.732-1.471,7.668-.283,11.349.159.492.612,1.083,1.063.829l.7-2.442a2.619,2.619,0,0,1,.442-.99,2.383,2.383,0,0,1,.769-.544,13.341,13.341,0,0,1,5.036-1.411,18.043,18.043,0,0,1,5.773.617c1.855.471,3.645,1.308,5.513,1.655q1.837.341,3.635.86a.209.209,0,0,0,.121.01c.074-.024.1-.116.107-.193a6.179,6.179,0,0,0-.189-2.463,14.194,14.194,0,0,1-.3-2.526,49.1,49.1,0,0,0-.778-5.382c-.808-3.859-2.211-7.57-2.893-11.458-.295-1.679-.477-4.463-2.062-5.749-1.723-1.4-5.611-1.467-7.8-1.222C300.439,516.689,300,516.75,299.574,516.831Z" transform="translate(-291.198 -501.25)" fill="#7fc5a3"/>
            <g id="Group_259" data-name="Group 259" transform="translate(2.636)">
              <g id="Group_258" data-name="Group 258">
                <path id="Path_193" data-name="Path 193" d="M321.1,477.231a3.174,3.174,0,0,1-2.263.173.5.5,0,0,1-.378-.425,13,13,0,0,1-.081-1.743c0-.15-2.053-.8-2.284-.971-1.288-.933-1.511-2.6-1.583-4.077a3.544,3.544,0,0,1,.295-1.982,3.109,3.109,0,0,1,1.906-1.223,10.75,10.75,0,0,1,3.777-.4,3.847,3.847,0,0,1,3.049,1.41c.907,1.4.677,4.15-.095,5.551-.446.811-1.163,1.067-1.732,1.7C321.189,475.83,321.344,476.522,321.1,477.231Z" transform="translate(-312.525 -461.162)" fill="#736052"/>
                <path id="Path_194" data-name="Path 194" d="M316.566,444.463a1.2,1.2,0,0,0,.241-.965,4.808,4.808,0,0,0-.394-.6c-.275-.52.057-1.183-.134-1.74-.251-.732-1.308-1.033-1.38-1.8-.279-.248-.607.229-.919.434-.708.465-1.554-.62-2.391-.494-.638.1-1.058.873-1.7.843-.482-.022-.952-.5-1.377-.278-.188.1-.288.312-.453.447-.527.431-1.566,0-1.86.614-.172.36-.1.679-.47.92-.325.212-.968-.135-1.167.328a.7.7,0,0,0-.029.327q.115,1.677.23,3.354a1.662,1.662,0,0,0,.228.878c.127.175.323.3.408.5.105.246.013.533.077.793.1.421,1.469,2.58,1.878,1.863a1.312,1.312,0,0,0,.046-.869,1.89,1.89,0,0,1,.094-1.27c.346-.591,1.157-.651,1.841-.694a4.542,4.542,0,0,0,1.852-.427c.391-.207.913-.5,1.212-.17.078.085.121.2.212.272a.528.528,0,0,0,.577-.049,1.254,1.254,0,0,1,.552-.255c.205-.009.423.219.31.391.071.206.367-.064.585-.05.181.011.261.228.3.4l.342,1.595a1.05,1.05,0,0,0,1.042-.656c.463-1.047-.253-2.05-.013-3.05A2.406,2.406,0,0,1,316.566,444.463Z" transform="translate(-304.524 -439.284)" fill="#1a1a1a"/>
              </g>
            </g>
          </g>
          <g id="Group_274" data-name="Group 274">
            <g id="Group_267" data-name="Group 267">
              <g id="Group_262" data-name="Group 262">
                <g id="Group_261" data-name="Group 261">
                  <circle id="Ellipse_46" data-name="Ellipse 46" cx="17.654" cy="17.654" r="17.654" transform="translate(0 24.966) rotate(-45)" fill="#ebb044"/>
                </g>
              </g>
              <g id="Group_264" data-name="Group 264" transform="translate(10.577 9.461)" opacity="0.08">
                <g id="Group_263" data-name="Group 263">
                  <path id="Path_195" data-name="Path 195" d="M288.966,357.609a17.656,17.656,0,0,1-22.87,25.717,17.655,17.655,0,1,0,22.87-25.717Z" transform="translate(-266.096 -357.609)"/>
                </g>
              </g>
              <g id="Group_266" data-name="Group 266" transform="translate(8.494 8.62)">
                <g id="Group_265" data-name="Group 265">
                  <path id="Path_196" data-name="Path 196" d="M256.892,372.317a16.39,16.39,0,0,1,28.853-11.431,16.392,16.392,0,1,0-26.275,19.483A16.315,16.315,0,0,1,256.892,372.317Z" transform="translate(-255.563 -353.357)" fill="#fff" opacity="0.2"/>
                </g>
              </g>
            </g>
            <g id="Group_268" data-name="Group 268" transform="translate(16.856 26.395)">
              <path id="Path_197" data-name="Path 197" d="M298.815,443.972a.582.582,0,0,0-.915.681,8.849,8.849,0,0,0,16.353-.646.582.582,0,0,0-.971-.6C310.825,446.041,305.523,449.872,298.815,443.972Z" transform="translate(-297.842 -443.226)" fill="#1c222d"/>
            </g>
            <g id="Group_271" data-name="Group 271" transform="translate(14.11 17.882)">
              <g id="Group_269" data-name="Group 269" transform="translate(15.149)">
                <path id="Path_198" data-name="Path 198" d="M360.577,402.392a3.271,3.271,0,0,1,6.038-.359.526.526,0,0,1-.82.623,2.8,2.8,0,0,0-4.336.266.526.526,0,0,1-.882-.53Z" transform="translate(-360.548 -400.185)" fill="#1c222d"/>
              </g>
              <g id="Group_270" data-name="Group 270" transform="translate(0 0.749)">
                <path id="Path_199" data-name="Path 199" d="M283.987,406.181a3.271,3.271,0,0,1,6.038-.359.526.526,0,0,1-.82.623,2.8,2.8,0,0,0-4.336.266.526.526,0,0,1-.882-.53Z" transform="translate(-283.958 -403.974)" fill="#1c222d"/>
              </g>
            </g>
            <g id="Group_272" data-name="Group 272" transform="translate(7.867 23.805)">
              <circle id="Ellipse_47" data-name="Ellipse 47" cx="3.082" cy="3.082" r="3.082" transform="matrix(0.842, -0.539, 0.539, 0.842, 0, 3.322)" fill="#d34e4e"/>
            </g>
            <g id="Group_273" data-name="Group 273" transform="translate(34.969 23.697)">
              <path id="Path_200" data-name="Path 200" d="M395.579,432.515a3.082,3.082,0,1,1-3.231-2.926A3.082,3.082,0,0,1,395.579,432.515Z" transform="translate(-389.419 -429.585)" fill="#d34e4e"/>
            </g>
          </g>
          <g id="Group_276" data-name="Group 276" transform="translate(18.756 53.707)">
            <g id="Group_275" data-name="Group 275" transform="translate(1.325 21.349)">
              <path id="Path_201" data-name="Path 201" d="M324.2,694.5a8.262,8.262,0,0,1-1.513.019,25.88,25.88,0,0,1-.179-5.274c.9.745,1.481.147,1.7,1.768A26.914,26.914,0,0,0,324.2,694.5Z" transform="translate(-320.804 -689.248)" fill="#b97262"/>
              <path id="Path_202" data-name="Path 202" d="M315.788,711.541c-.616-.122-.54,1.294-.5,1.623a2.465,2.465,0,0,1,.058.594,1.6,1.6,0,0,1-.246.606l-.69,1.194a1.87,1.87,0,0,0-.248.565,1.1,1.1,0,0,0,.752,1.189c1.687.559,2.835-1.574,2.985-2.892.023-.2.032-.405.04-.608.018-.42.194-1.357-.028-1.732-.259-.437-.781-.015-1.183-.134C316.362,711.833,316.037,711.59,315.788,711.541Z" transform="translate(-314.151 -707.125)" fill="#3b455a"/>
            </g>
            <path id="Path_203" data-name="Path 203" d="M314.6,582.711a5.314,5.314,0,0,1,.415.527,8.592,8.592,0,0,1,1.327,5.075,25.6,25.6,0,0,1-.855,5.253,35.518,35.518,0,0,0-1.227,6.3c-.055,1.13-.244,2.265-.369,3.388-.112,1-.234,2.006-.308,3.011-.026.355-.084.375-.461.433a8.234,8.234,0,0,1-4.094-.408c-.614-.227-.43-1.406-.483-1.939-.154-1.548-.273-3.1-.389-4.651-.231-3.1-.516-6.2-.607-9.306-.079-2.69-.508-5.338,1.379-7.537a4.048,4.048,0,0,1,2.779-1.542A3.784,3.784,0,0,1,314.6,582.711Z" transform="translate(-307.45 -581.31)" fill="#3b455a"/>
          </g>
          <g id="Group_278" data-name="Group 278" transform="translate(26.055 53.647)">
            <g id="Group_277" data-name="Group 277" transform="translate(4.188 20.358)">
              <path id="Path_204" data-name="Path 204" d="M367.253,689.394a8.465,8.465,0,0,0,1.548-.055,26.5,26.5,0,0,0-.075-5.4c-.887.806-1.508.224-1.648,1.891A27.626,27.626,0,0,1,367.253,689.394Z" transform="translate(-366.769 -683.935)" fill="#b97262"/>
              <path id="Path_205" data-name="Path 205" d="M367.766,706.709c.624-.155.616,1.3.586,1.636a2.533,2.533,0,0,0-.031.61,1.635,1.635,0,0,0,.281.607l.764,1.188a1.918,1.918,0,0,1,.281.566,1.128,1.128,0,0,1-.711,1.253c-1.7.654-2.977-1.471-3.2-2.812-.034-.205-.052-.413-.071-.62-.039-.429-.265-1.379-.057-1.773.243-.46.8-.053,1.2-.2C367.193,707.036,367.514,706.772,367.766,706.709Z" transform="translate(-365.527 -702.195)" fill="#3b455a"/>
            </g>
            <path id="Path_206" data-name="Path 206" d="M345.811,582.5a5.211,5.211,0,0,0-.378.531,8.347,8.347,0,0,0-1.052,4.988,24.86,24.86,0,0,0,1.074,5.06,34.532,34.532,0,0,1,1.484,6.056c.052.539,1.091,6.575.978,6.581.73-.035,1.456.165,2.193.084.8-.087,1.591-.139,2.384-.256a6.1,6.1,0,0,1,.177-1.125c.047-.4,0-.8.024-1.2.078-1.51.121-3.022.162-4.533.08-3.02.212-6.04.156-9.062-.049-2.615.244-5.205-1.69-7.252a3.934,3.934,0,0,0-2.769-1.368A3.678,3.678,0,0,0,345.811,582.5Z" transform="translate(-344.354 -581.006)" fill="#3b455a"/>
          </g>
        </g>
      </g>
    </g>
  </g>
</svg>
