<svg xmlns="http://www.w3.org/2000/svg" width="20" height="17.359" viewBox="0 0 20 17.359">
  <path id="Path_95" data-name="Path 95" d="M777.579,1.762h-2.516c0,1.436-.037,2.837.012,4.235.035.989-.36,1.368-1.342,1.322-1.168-.055-2.342-.05-3.511,0-.972.04-1.36-.325-1.342-1.323.046-2.514.015-5.029.015-7.543V-2.72l-1.83,1.388-.711-.835c.337-.307.6-.569.886-.8q3.954-3.24,7.916-6.471c.978-.8,1.355-.793,2.346.014,1.616,1.316,3.229,2.636,5,4.083V-7.453h1.324c-.632,2.376.3,4.068,2.525,5.129L785.6-1.307,783.824-2.7c-.033.4-.076.684-.076.966,0,2.549,0,5.1,0,7.647,0,1.245-.141,1.387-1.346,1.392-1.24.005-2.479-.012-3.718,0-.784.011-1.135-.34-1.106-1.127.026-.722.005-1.446.005-2.17ZM770.1,6.029h3.755c0-1.477.028-2.884-.01-4.289-.024-.865.271-1.289,1.191-1.232.788.048,1.582.007,2.373.01,1.254.006,1.365.113,1.37,1.348.005,1.4,0,2.791,0,4.154h3.756c0-3.142.006-6.2-.012-9.264a1.039,1.039,0,0,0-.273-.719c-1.949-1.626-3.922-3.224-5.94-4.871-2,1.633-3.943,3.212-5.868,4.817a1.024,1.024,0,0,0-.329.693C770.1-.232,770.1,2.861,770.1,6.029Z" transform="translate(-766.355 10.036)" fill="#1baecb"/>
</svg>
