<svg xmlns="http://www.w3.org/2000/svg" width="23" height="16.785" viewBox="0 0 23 16.785">
  <g id="Group_91" data-name="Group 91" transform="translate(-758.978 -246.192)">
    <path id="Path_96" data-name="Path 96" d="M781.076,249.609l-5.7,4.706,5.679,5.167c.008-.145.016-.233.016-.321,0-.778,0-1.557,0-2.335a1.734,1.734,0,0,1,.024-.306.4.4,0,0,1,.388-.346.388.388,0,0,1,.439.275.969.969,0,0,1,.045.3c0,1.386.006,2.771,0,4.157a1.941,1.941,0,0,1-1.536,2.006,2.567,2.567,0,0,1-.635.061q-9.329,0-18.659,0a1.976,1.976,0,0,1-2.089-1.466,2.2,2.2,0,0,1-.074-.583q-.006-6.338,0-12.677a1.937,1.937,0,0,1,1.52-1.991,2.66,2.66,0,0,1,.66-.065q9.316,0,18.633,0a1.98,1.98,0,0,1,2.1,1.451,2.316,2.316,0,0,1,.078.608q.01,2.091,0,4.183a.934.934,0,0,1-.063.322.341.341,0,0,1-.433.227.787.787,0,0,1-.362-.306.685.685,0,0,1-.037-.35C781.075,251.446,781.076,250.566,781.076,249.609Zm-10.6-2.517h-9.415a1.083,1.083,0,0,0-1.181,1.081.434.434,0,0,0,.174.416q4.582,3.776,9.159,7.559a.593.593,0,0,0,.341.124q.923.018,1.847,0a.6.6,0,0,0,.341-.125c.521-.416,1.031-.845,1.545-1.27q3.805-3.146,7.613-6.289a.421.421,0,0,0,.176-.391,1.1,1.1,0,0,0-1.184-1.105Zm-4.2,7.8-.935.848q-2.657,2.416-5.31,4.837a.517.517,0,0,0-.151.346,1.08,1.08,0,0,0,1.183,1.15h12.058q3.386,0,6.773,0a1.112,1.112,0,0,0,.875-.346,1.022,1.022,0,0,0,.286-.871.939.939,0,0,0-.325-.448q-2.421-2.218-4.854-4.424c-.4-.366-.806-.73-1.21-1.1-.854.7-1.68,1.4-2.522,2.067a1,1,0,0,1-.551.205q-1.128.034-2.257,0a.952.952,0,0,1-.528-.2C767.965,256.293,767.133,255.6,766.282,254.9Zm-6.388,4.587,5.68-5.169-5.68-4.693Z" transform="translate(0 0)" fill="#8c8c94"/>
    <path id="Path_97" data-name="Path 97" d="M974.785,324.416a.446.446,0,1,1,.005-.892.462.462,0,0,1,.446.464A.449.449,0,0,1,974.785,324.416Z" transform="translate(-193.261 -69.396)" fill="#8c8c94"/>
    <path id="Path_98" data-name="Path 98" d="M845.88,265.139a.735.735,0,0,1-1.021.759,9.877,9.877,0,0,1-.928-.433.5.5,0,0,0-.524.006c-.271.144-.552.27-.834.392a.739.739,0,0,1-1.1-.806c.032-.306.052-.615.114-.914a.487.487,0,0,0-.161-.5c-.231-.228-.446-.472-.662-.715a.721.721,0,0,1,.4-1.237c.35-.077.705-.132,1.053-.217a.481.481,0,0,0,.268-.19c.186-.3.344-.609.521-.911a.721.721,0,0,1,1.325-.012c.185.307.345.629.534.934a.442.442,0,0,0,.248.178c.34.083.684.146,1.029.209a.74.74,0,0,1,.621.5.717.717,0,0,1-.206.771c-.241.254-.484.507-.708.776a.478.478,0,0,0-.1.315C845.785,264.433,845.841,264.814,845.88,265.139Zm-.149-2.61c-.373-.074-.7-.144-1.036-.2a.652.652,0,0,1-.51-.375c-.15-.3-.325-.589-.51-.919-.162.291-.317.526-.43.781a.852.852,0,0,1-.761.547c-.28.028-.555.108-.867.171.258.276.478.526.713.759a.69.69,0,0,1,.2.652c-.052.318-.079.64-.122,1,.339-.16.648-.295.947-.45a.642.642,0,0,1,.633,0c.3.154.613.291.953.451-.043-.364-.075-.693-.124-1.02a.68.68,0,0,1,.2-.629C845.252,263.056,845.476,262.8,845.731,262.529Z" transform="translate(-73.196 -12.331)" fill="#8c8c94"/>
    <path id="Path_99" data-name="Path 99" d="M834.489,364.281q-1.82,0-3.64,0c-.246,0-.442-.07-.508-.33a.436.436,0,0,1,.382-.553,1.915,1.915,0,0,1,.256-.009h7.05c.437,0,.646.141.652.438s-.2.453-.655.453Z" transform="translate(-64.025 -105.171)" fill="#8c8c94"/>
    <path id="Path_100" data-name="Path 100" d="M842.23,381.3c-.923,0-1.845,0-2.768,0-.426,0-.671-.374-.433-.676a.694.694,0,0,1,.484-.2c1.187-.017,2.375-.009,3.563-.009H845a.461.461,0,0,1,.5.345c.082.292-.144.543-.5.545C844.076,381.3,843.153,381.3,842.23,381.3Z" transform="translate(-71.752 -120.44)" fill="#8c8c94"/>
  </g>
</svg>
