<svg xmlns="http://www.w3.org/2000/svg" width="156" height="53.144" viewBox="0 0 156 53.144">
  <g id="Group_289" data-name="Group 289" transform="translate(-32 -332)">
    <g id="Group_1" data-name="Group 1" transform="translate(-123.229 -195.741)">
      <path id="Path_1" data-name="Path 1" d="M372.42,546.206a10.82,10.82,0,0,0,0,15.618,12.409,12.409,0,0,0,1.675,1.406c2.519-6.586,6.431-13.287,12.5-18.368a10.589,10.589,0,0,0-6.29-1.987A10.775,10.775,0,0,0,372.42,546.206Z" transform="translate(-89.392 -6.326)" fill="none"/>
      <path id="Path_2" data-name="Path 2" d="M182.722,542.875a11.311,11.311,0,1,0,7.92,3.331A10.736,10.736,0,0,0,182.722,542.875Z" transform="translate(-6.804 -6.326)" fill="none"/>
      <path id="Path_3" data-name="Path 3" d="M387.519,569.532a11.377,11.377,0,0,0,11.214-11.139,10.46,10.46,0,0,0-1.249-5.043,84.267,84.267,0,0,0-11.131,16.123C386.735,569.511,387.124,569.532,387.519,569.532Z" transform="translate(-96.608 -10.704)" fill="none"/>
      <path id="Path_4" data-name="Path 4" d="M250.129,542.875a11.378,11.378,0,1,0,7.883,3.331A10.776,10.776,0,0,0,250.129,542.875Z" transform="translate(-34.98 -6.326)" fill="none"/>
      <path id="Path_5" data-name="Path 5" d="M226.363,531.22a18.956,18.956,0,0,0-11.214-3.479,19.789,19.789,0,0,0-14.4,5.811,19.115,19.115,0,0,0-5.219,8.726,19.126,19.126,0,0,0-5.22-8.726,19.791,19.791,0,0,0-14.4-5.811A18.951,18.951,0,0,0,164.7,531.22v-3.109h-9.475V579.96H164.7V564.268a19.308,19.308,0,0,0,11.214,3.442,19.7,19.7,0,0,0,14.359-5.884,19.419,19.419,0,0,0,5.257-8.776,19.409,19.409,0,0,0,5.257,8.776,20.259,20.259,0,0,0,25.573,2.442v2.59h9.474V528.111h-9.474ZM183.837,555.5a10.9,10.9,0,1,1,3.294-7.809A10.74,10.74,0,0,1,183.837,555.5Zm39.195,0a10.819,10.819,0,1,1,3.331-7.809A10.777,10.777,0,0,1,223.032,555.5Z" transform="translate(0 0)" fill="#fff"/>
      <path id="Path_6" data-name="Path 6" d="M365.882,555.5a11.14,11.14,0,0,1,7.883-18.949,10.589,10.589,0,0,1,6.29,1.987,35.1,35.1,0,0,1,8.044-5.061,20.76,20.76,0,0,0-28.73.076,19.794,19.794,0,0,0,.037,28.275,20.559,20.559,0,0,0,5.481,3.92,66.42,66.42,0,0,1,2.67-8.843A12.409,12.409,0,0,1,365.882,555.5Z" transform="translate(-82.853 0)" fill="#00aecb"/>
      <path id="Path_7" data-name="Path 7" d="M394.542,548.741a10.46,10.46,0,0,1,1.249,5.043,11.377,11.377,0,0,1-11.214,11.139c-.4,0-.784-.021-1.166-.059q-2.069,3.806-4.1,8.3a21.3,21.3,0,0,0,5.281.644,19.655,19.655,0,0,0,14.359-5.884,19.9,19.9,0,0,0,2.34-25.6A55.089,55.089,0,0,0,394.542,548.741Z" transform="translate(-93.666 -6.095)" fill="#006182"/>
      <path id="Path_8" data-name="Path 8" d="M312.432,554.97l-8.2-26.593h-9.992l10.7,32.826a34.562,34.562,0,0,1,1.7,6.995q0,3.406-3.923,3.406a17.483,17.483,0,0,1-3.5-.37l-1.328,8.845a19.216,19.216,0,0,0,7.01,1.073,9.9,9.9,0,0,0,8.115-3.535q2.89-3.536,5.929-13.014l11.6-36.225h-9.77Z" transform="translate(-58.106 -0.266)" fill="#fff"/>
    </g>
  </g>
</svg>
