<svg xmlns="http://www.w3.org/2000/svg" width="40.635" height="39.969" viewBox="0 0 40.635 39.969">
  <g id="Group_289" data-name="Group 289" transform="translate(-270.594 -527.741)">
    <path id="Path_6" data-name="Path 6" d="M365.882,555.5a11.14,11.14,0,0,1,7.883-18.949,10.589,10.589,0,0,1,6.29,1.987,35.1,35.1,0,0,1,8.044-5.061,20.76,20.76,0,0,0-28.73.076,19.794,19.794,0,0,0,.037,28.275,20.559,20.559,0,0,0,5.481,3.92,66.42,66.42,0,0,1,2.67-8.843A12.409,12.409,0,0,1,365.882,555.5Z" transform="translate(-82.853 0)" fill="#00aecb"/>
    <path id="Path_7" data-name="Path 7" d="M394.542,548.741a10.46,10.46,0,0,1,1.249,5.043,11.377,11.377,0,0,1-11.214,11.139c-.4,0-.784-.021-1.166-.059q-2.069,3.806-4.1,8.3a21.3,21.3,0,0,0,5.281.644,19.655,19.655,0,0,0,14.359-5.884,19.9,19.9,0,0,0,2.34-25.6A55.089,55.089,0,0,0,394.542,548.741Z" transform="translate(-93.666 -6.095)" fill="#006182"/>
  </g>
</svg>
