<svg xmlns="http://www.w3.org/2000/svg" width="19.951" height="19.951" viewBox="0 0 19.951 19.951">
  <g id="Group_290" data-name="Group 290" transform="translate(-71.998 -72.08)">
    <path id="Path_89" data-name="Path 89" d="M72.277,79.422,81.2,82.849l3.854,8.921a.434.434,0,0,0,.4.262h.022a.434.434,0,0,0,.392-.3l6.073-19.088a.321.321,0,0,0,.006-.041.411.411,0,0,0,.01-.072.432.432,0,0,0,0-.071.406.406,0,0,0-.013-.068.451.451,0,0,0-.029-.07.413.413,0,0,0-.016-.038.265.265,0,0,0-.018-.02.45.45,0,0,0-.049-.055.423.423,0,0,0-.056-.049c-.007-.005-.012-.013-.02-.017s-.026-.009-.038-.015a.346.346,0,0,0-.136-.04.444.444,0,0,0-.076,0,.389.389,0,0,0-.07.012.4.4,0,0,0-.045.007L72.292,78.607a.433.433,0,0,0-.015.815ZM85.385,90.361l-3.349-7.753,8.53-8.531Zm4.509-16.839L81.413,82l-7.708-2.962Z" transform="translate(0)" fill="#fff"/>
    <path id="Path_90" data-name="Path 90" d="M72.432,318.939a.433.433,0,0,0,.307-.127l6.073-6.073a.434.434,0,1,0-.613-.613L72.125,318.2a.434.434,0,0,0,.307.741Z" transform="translate(0 -226.908)" fill="#fff"/>
    <path id="Path_91" data-name="Path 91" d="M163.162,368.125l-3.037,3.037a.434.434,0,1,0,.613.613l3.037-3.037a.434.434,0,0,0-.613-.613Z" transform="translate(-83.228 -279.871)" fill="#fff"/>
    <path id="Path_92" data-name="Path 92" d="M72.432,283.9a.433.433,0,0,0,.307-.127l3.037-3.037a.434.434,0,1,0-.613-.613l-3.037,3.037a.434.434,0,0,0,.307.741Z" transform="translate(0 -196.643)" fill="#fff"/>
  </g>
</svg>
